<?xml version="1.0" encoding="utf-8"?>
<!-- Generator: Adobe Illustrator 19.2.1, SVG Export Plug-In . SVG Version: 6.00 Build 0)  -->
<svg version="1.1" xmlns="http://www.w3.org/2000/svg" xmlns:xlink="http://www.w3.org/1999/xlink" x="0px" y="0px"
	 viewBox="0 0 600.8 374.8" style="enable-background:new 0 0 600.8 374.8;" xml:space="preserve">
<style type="text/css">
	.st0{fill:none;}
	.st1{fill:none;stroke:#FFFFFF;stroke-width:0.5;stroke-miterlimit:10;}
	.st2{clip-path:url(#SVGID_2_);fill:#46890B;}
	.st3{clip-path:url(#SVGID_2_);fill:#3B7C08;}
	.st4{opacity:0.2;clip-path:url(#SVGID_2_);}
	.st5{clip-path:url(#SVGID_4_);fill:#666666;}
	.st6{clip-path:url(#SVGID_4_);fill:#686868;}
	.st7{clip-path:url(#SVGID_4_);fill:#6B6B6B;}
	.st8{clip-path:url(#SVGID_4_);fill:#6D6D6D;}
	.st9{clip-path:url(#SVGID_4_);fill:#707070;}
	.st10{clip-path:url(#SVGID_4_);fill:#727272;}
	.st11{clip-path:url(#SVGID_4_);fill:#747474;}
	.st12{clip-path:url(#SVGID_4_);fill:#777777;}
	.st13{clip-path:url(#SVGID_4_);fill:#797979;}
	.st14{clip-path:url(#SVGID_4_);fill:#7B7B7B;}
	.st15{clip-path:url(#SVGID_4_);fill:#7E7E7E;}
	.st16{clip-path:url(#SVGID_4_);fill:#808080;}
	.st17{clip-path:url(#SVGID_4_);fill:#828282;}
	.st18{clip-path:url(#SVGID_4_);fill:#848484;}
	.st19{clip-path:url(#SVGID_4_);fill:#868686;}
	.st20{clip-path:url(#SVGID_4_);fill:#888888;}
	.st21{clip-path:url(#SVGID_4_);fill:#8B8B8B;}
	.st22{clip-path:url(#SVGID_4_);fill:#8D8D8D;}
	.st23{clip-path:url(#SVGID_4_);fill:#8F8F8F;}
	.st24{clip-path:url(#SVGID_4_);fill:#919191;}
	.st25{clip-path:url(#SVGID_4_);fill:#939393;}
	.st26{clip-path:url(#SVGID_4_);fill:#959595;}
	.st27{clip-path:url(#SVGID_4_);fill:#979797;}
	.st28{clip-path:url(#SVGID_4_);fill:#999999;}
	.st29{clip-path:url(#SVGID_4_);fill:#9B9B9B;}
	.st30{clip-path:url(#SVGID_4_);fill:#9D9D9D;}
	.st31{clip-path:url(#SVGID_4_);fill:#9E9E9E;}
	.st32{clip-path:url(#SVGID_4_);fill:#A0A0A0;}
	.st33{clip-path:url(#SVGID_4_);fill:#A2A2A2;}
	.st34{clip-path:url(#SVGID_4_);fill:#A4A4A4;}
	.st35{clip-path:url(#SVGID_4_);fill:#A6A6A6;}
	.st36{clip-path:url(#SVGID_4_);fill:#A8A8A8;}
	.st37{clip-path:url(#SVGID_4_);fill:#A9A9A9;}
	.st38{clip-path:url(#SVGID_4_);fill:#ABABAB;}
	.st39{clip-path:url(#SVGID_4_);fill:#ADADAD;}
	.st40{clip-path:url(#SVGID_4_);fill:#AEAEAE;}
	.st41{clip-path:url(#SVGID_4_);fill:#B0B0B0;}
	.st42{clip-path:url(#SVGID_4_);fill:#B2B2B2;}
	.st43{clip-path:url(#SVGID_4_);fill:#B3B3B3;}
	.st44{clip-path:url(#SVGID_4_);fill:#B5B5B5;}
	.st45{clip-path:url(#SVGID_4_);fill:#B7B7B7;}
	.st46{clip-path:url(#SVGID_4_);fill:#B8B8B8;}
	.st47{clip-path:url(#SVGID_4_);fill:#BABABA;}
	.st48{clip-path:url(#SVGID_4_);fill:#BBBBBB;}
	.st49{clip-path:url(#SVGID_4_);fill:#BDBDBD;}
	.st50{clip-path:url(#SVGID_4_);fill:#BEBEBE;}
	.st51{clip-path:url(#SVGID_4_);fill:#C0C0C0;}
	.st52{clip-path:url(#SVGID_4_);fill:#C1C1C1;}
	.st53{clip-path:url(#SVGID_4_);fill:#C3C3C3;}
	.st54{clip-path:url(#SVGID_4_);fill:#C4C4C4;}
	.st55{clip-path:url(#SVGID_4_);fill:#C5C5C5;}
	.st56{clip-path:url(#SVGID_4_);fill:#C7C7C7;}
	.st57{clip-path:url(#SVGID_4_);fill:#C8C8C8;}
	.st58{clip-path:url(#SVGID_4_);fill:#CACACA;}
	.st59{clip-path:url(#SVGID_4_);fill:#CBCBCB;}
	.st60{clip-path:url(#SVGID_4_);fill:#CCCCCC;}
	.st61{clip-path:url(#SVGID_4_);fill:#CDCDCD;}
	.st62{clip-path:url(#SVGID_4_);fill:#CFCFCF;}
	.st63{clip-path:url(#SVGID_4_);fill:#D0D0D0;}
	.st64{clip-path:url(#SVGID_4_);fill:#D1D1D1;}
	.st65{clip-path:url(#SVGID_4_);fill:#D2D2D2;}
	.st66{clip-path:url(#SVGID_4_);fill:#D3D3D3;}
	.st67{clip-path:url(#SVGID_4_);fill:#D5D5D5;}
	.st68{clip-path:url(#SVGID_4_);fill:#D6D6D6;}
	.st69{clip-path:url(#SVGID_4_);fill:#D7D7D7;}
	.st70{clip-path:url(#SVGID_4_);fill:#D8D8D8;}
	.st71{clip-path:url(#SVGID_4_);fill:#D9D9D9;}
	.st72{clip-path:url(#SVGID_4_);fill:#DADADA;}
	.st73{clip-path:url(#SVGID_4_);fill:#DBDBDB;}
	.st74{clip-path:url(#SVGID_4_);fill:#DCDCDC;}
	.st75{clip-path:url(#SVGID_4_);fill:#DDDDDD;}
	.st76{clip-path:url(#SVGID_4_);fill:#DEDEDE;}
	.st77{clip-path:url(#SVGID_4_);fill:#DFDFDF;}
	.st78{clip-path:url(#SVGID_4_);fill:#E0E0E0;}
	.st79{clip-path:url(#SVGID_4_);fill:#E1E1E1;}
	.st80{clip-path:url(#SVGID_4_);fill:#E2E2E2;}
	.st81{clip-path:url(#SVGID_4_);fill:#E3E3E3;}
	.st82{clip-path:url(#SVGID_4_);fill:#E4E4E4;}
	.st83{clip-path:url(#SVGID_4_);fill:#E5E5E5;}
	.st84{clip-path:url(#SVGID_4_);fill:#E6E6E6;}
	.st85{clip-path:url(#SVGID_4_);fill:#E7E7E7;}
	.st86{clip-path:url(#SVGID_4_);fill:#E8E8E8;}
	.st87{clip-path:url(#SVGID_4_);fill:#E9E9E9;}
	.st88{clip-path:url(#SVGID_4_);fill:#EAEAEA;}
	.st89{clip-path:url(#SVGID_4_);fill:#EBEBEB;}
	.st90{clip-path:url(#SVGID_4_);fill:#ECECEC;}
	.st91{clip-path:url(#SVGID_4_);fill:#EDEDED;}
	.st92{clip-path:url(#SVGID_4_);fill:#EEEEEE;}
	.st93{clip-path:url(#SVGID_4_);fill:#EFEFEF;}
	.st94{clip-path:url(#SVGID_4_);fill:#F0F0F0;}
	.st95{clip-path:url(#SVGID_4_);fill:#F1F1F1;}
	.st96{clip-path:url(#SVGID_4_);fill:#F2F2F2;}
	.st97{clip-path:url(#SVGID_4_);fill:#F3F3F3;}
	.st98{clip-path:url(#SVGID_4_);fill:#F4F4F4;}
	.st99{clip-path:url(#SVGID_4_);fill:#F5F5F5;}
	.st100{clip-path:url(#SVGID_4_);fill:#F6F6F6;}
	.st101{clip-path:url(#SVGID_4_);fill:#F7F7F7;}
	.st102{clip-path:url(#SVGID_4_);fill:#F8F8F8;}
	.st103{clip-path:url(#SVGID_4_);fill:#F9F9F9;}
	.st104{clip-path:url(#SVGID_4_);fill:#FAFAFA;}
	.st105{clip-path:url(#SVGID_4_);fill:#FBFBFB;}
	.st106{clip-path:url(#SVGID_4_);fill:#FCFCFC;}
	.st107{clip-path:url(#SVGID_4_);fill:#FDFDFD;}
	.st108{clip-path:url(#SVGID_4_);fill:#FEFEFE;}
	.st109{clip-path:url(#SVGID_4_);fill:#FFFFFF;}
	.st110{fill:url(#New_Pattern_Swatch_5);stroke:#FFFFFF;stroke-width:3;stroke-miterlimit:10;}
	.st111{fill:none;stroke:#FFFFFF;stroke-width:2;stroke-miterlimit:10;}
	.st112{fill:#FFFFFF;}
	.st113{fill:none;stroke:#FFFFFF;stroke-width:3;stroke-miterlimit:10;}
</style>
<pattern  x="-123.1" y="492.9" width="9.3" height="8" patternUnits="userSpaceOnUse" id="New_Pattern_Swatch_5" viewBox="0 -8 9.3 8" style="overflow:visible;">
	<g>
		<rect x="0" y="-8" class="st0" width="9.3" height="8"/>
		<polygon class="st1" points="6.8,-0.3 2.5,-0.3 0.3,-4 2.5,-7.8 6.8,-7.8 9,-4 		"/>
	</g>
</pattern>
<g id="Layer_1">
	<g>
		<defs>
			<path id="SVGID_1_" d="M600.6,362.9c0,6.6-5.6,11.9-12.6,11.9H13.9c-7,0-12.6-5.3-12.6-11.9v-351C1.2,5.3,6.9,0,13.9,0H588
				c7,0,12.6,5.3,12.6,11.9V362.9z"/>
		</defs>
		<clipPath id="SVGID_2_">
			<use xlink:href="#SVGID_1_"  style="overflow:visible;"/>
		</clipPath>
		<rect x="1.2" class="st2" width="42.8" height="374.8"/>
		<rect x="44.1" class="st3" width="42.8" height="374.8"/>
		<rect x="86.9" class="st2" width="42.8" height="374.8"/>
		<rect x="129.7" class="st3" width="42.8" height="374.8"/>
		<rect x="172.5" class="st2" width="42.8" height="374.8"/>
		<rect x="215.3" class="st3" width="42.8" height="374.8"/>
		<rect x="258.1" class="st2" width="42.8" height="374.8"/>
		<rect x="300.9" class="st3" width="42.8" height="374.8"/>
		<rect x="343.7" class="st2" width="42.8" height="374.8"/>
		<rect x="386.5" class="st3" width="42.8" height="374.8"/>
		<rect x="429.3" class="st2" width="42.8" height="374.8"/>
		<rect x="472.2" class="st3" width="42.8" height="374.8"/>
		<rect x="515" class="st2" width="42.8" height="374.8"/>
		<rect x="557.8" class="st3" width="42.8" height="374.8"/>
		<g class="st4">
			<g>
				<defs>
					<rect id="SVGID_3_" x="1.2" y="0" width="599.4" height="374.8"/>
				</defs>
				<clipPath id="SVGID_4_">
					<use xlink:href="#SVGID_3_"  style="overflow:visible;"/>
				</clipPath>
				<rect x="1.2" y="0" class="st5" width="599.4" height="374.8"/>
				<path class="st5" d="M600.8,225.5v87.3V370h0.6c-0.3,0.1-0.6,0.3-0.9,0.4c-2.4,1.1-4.8,2.2-7.3,3.3c-1.2,0.5-2.5,1.1-3.7,1.6
					V375H127.8v0.4C80.1,358,37.9,335.8,3.4,310.4c-1.1-0.8-2.1-1.6-3.2-2.4H1V3.2H0.3C0.5,3,0.8,2.9,1.1,2.7C2.2,2,3.2,1.4,4.3,0.8
					c1.1-0.6,2.2-1.3,3.3-1.9v0.9h539.9v-0.7c2.8,1.3,5.5,2.6,8.2,3.9c5.4,2.6,10.7,5.3,15.9,8c10.4,5.5,20.4,11.2,30,17.1h-0.7
					V225.5z"/>
				<path class="st6" d="M600.8,225.2V312v55.6h1.4c-1.2,0.6-2.4,1.1-3.5,1.7c-4.8,2.2-9.6,4.4-14.6,6.5V375H133.5v0.8
					c-1.5-0.5-3-1.1-4.5-1.6c-47.4-17.4-89.3-39.4-123.6-64.7c-1.1-0.8-2.1-1.6-3.2-2.4c-0.5-0.4-1.1-0.8-1.6-1.2H1V5.8H0
					c2.1-1.3,4.2-2.6,6.4-3.8C7.4,1.3,8.5,0.7,9.6,0c0.5-0.3,1.1-0.6,1.6-0.9v0.7h532.7v-0.5c0.7,0.3,1.4,0.6,2.1,0.9
					c2.7,1.3,5.4,2.5,8.1,3.8c5.4,2.6,10.6,5.2,15.8,7.9c10.3,5.4,20.3,11.1,29.8,17c0.6,0.4,1.2,0.7,1.8,1.1h-0.6V225.2z"/>
				<path class="st7" d="M600.8,224.9v86.1v54.4h1.2c-0.6,0.3-1.2,0.6-1.7,0.9c-1.2,0.6-2.3,1.1-3.5,1.7c-4.7,2.2-9.6,4.4-14.5,6.5
					c-1.2,0.5-2.5,1-3.7,1.5v-1H139.2v1c-3-1-6-2.1-8.9-3.2c-47.1-17.2-88.7-39.1-122.8-64.2c-2.1-1.6-4.2-3.1-6.3-4.7
					c-0.5-0.4-1-0.8-1.5-1.2H1V7.9H0.5c0.5-0.3,1-0.6,1.6-1c2.1-1.3,4.2-2.6,6.3-3.8c2.1-1.3,4.3-2.5,6.5-3.7v0.4h525.5v-0.3
					c1.4,0.6,2.7,1.2,4.1,1.9c2.7,1.3,5.4,2.5,8.1,3.8c5.3,2.6,10.6,5.2,15.7,7.9c10.3,5.4,20.1,11,29.6,16.9
					c1.2,0.7,2.3,1.5,3.5,2.2h-0.5V224.9z"/>
				<path class="st8" d="M600.8,224.6v85.6v53.1h1.1c-2.3,1.1-4.6,2.3-7,3.4c-4.7,2.2-9.5,4.4-14.4,6.4c-2.5,1-4.9,2.1-7.4,3V375
					H144.8v1.3c-1.5-0.5-3-1-4.5-1.5c-3-1-5.9-2.1-8.8-3.2c-46.8-17.1-88.1-38.9-121.9-63.8c-2.1-1.6-4.2-3.1-6.3-4.7
					c-1-0.8-2-1.6-3.1-2.4H1V10h0c1-0.6,2-1.3,3.1-1.9c2.1-1.3,4.2-2.5,6.3-3.8c2.1-1.2,4.3-2.5,6.5-3.7c1.1-0.6,2.2-1.2,3.3-1.8
					v1.1h514.6v-0.9c11,4.8,21.6,9.9,31.8,15.3c10.2,5.3,20,10.9,29.4,16.8c1.2,0.7,2.3,1.5,3.5,2.2c0.6,0.4,1.2,0.7,1.7,1.1h-0.3
					V224.6z"/>
				<path class="st9" d="M600.8,224.3v85v51.9h0.9c-0.6,0.3-1.1,0.6-1.7,0.9c-2.3,1.1-4.6,2.3-6.9,3.4c-4.7,2.2-9.4,4.3-14.3,6.4
					c-2.4,1-4.9,2-7.4,3c-0.6,0.2-1.2,0.5-1.9,0.7V375H148.2v0.7c-0.7-0.3-1.5-0.5-2.2-0.8c-1.5-0.5-3-1-4.4-1.5
					c-2.9-1-5.9-2.1-8.8-3.1c-46.5-17-87.5-38.6-121.1-63.4c-2.1-1.5-4.2-3.1-6.2-4.7c-1-0.8-2-1.6-3-2.4c-0.5-0.4-1-0.8-1.5-1.2H1
					V13.1H0.1c4-2.6,8.1-5.2,12.3-7.6c2.1-1.2,4.3-2.5,6.4-3.7c1.1-0.6,2.2-1.2,3.3-1.8c0.5-0.3,1.1-0.6,1.7-0.9v0.8h507.4v-0.6
					c0.7,0.3,1.4,0.6,2,0.9c10.9,4.8,21.4,9.9,31.6,15.2c10.1,5.3,19.9,10.9,29.2,16.6c2.3,1.4,4.6,2.9,6.9,4.4h-0.2V224.3z"/>
				<path class="st10" d="M600.8,224v84.4v50.7h0.6c-1.1,0.6-2.2,1.1-3.4,1.7c-2.3,1.1-4.6,2.2-6.9,3.3c-4.6,2.2-9.4,4.3-14.2,6.3
					c-2.4,1-4.9,2-7.3,3c-1.2,0.5-2.5,1-3.7,1.5v0H151.5v0.1c-5.9-2-11.8-4-17.6-6.1c-46.2-16.9-86.9-38.4-120.3-63
					c-4.2-3.1-8.2-6.2-12.2-9.4c-0.5-0.4-1-0.8-1.5-1.2h1V15.1H0.8c0.5-0.3,1-0.7,1.5-1C10.2,9,18.6,4,27.4-0.6v0.4h500.3v-0.3
					c1.4,0.6,2.7,1.2,4.1,1.8c10.8,4.8,21.3,9.8,31.4,15.1c10.1,5.3,19.7,10.8,29,16.5c2.3,1.4,4.6,2.9,6.8,4.3
					c0.6,0.4,1.1,0.7,1.7,1.1c0.3,0.2,0.6,0.4,0.8,0.6h-0.8V224z"/>
				<path class="st11" d="M600.8,223.7v83.9v49.5h0.4c-0.6,0.3-1.1,0.6-1.7,0.9c-1.1,0.6-2.2,1.1-3.4,1.7c-2.3,1.1-4.5,2.2-6.8,3.3
					c-4.6,2.2-9.3,4.3-14.1,6.3c-4.8,2-9.7,4-14.7,5.9V375H157.1v0.2c-1.5-0.5-3-1-4.4-1.5c-5.9-2-11.7-4-17.4-6.1
					c-45.9-16.8-86.3-38.1-119.5-62.5c-4.1-3.1-8.2-6.2-12.1-9.3c-1-0.8-1.9-1.6-2.9-2.4H1V18.2H0c0.5-0.3,1-0.7,1.5-1
					c1-0.7,2-1.3,2.9-1.9c7.9-5.2,16.2-10.1,25-14.7c1.1-0.6,2.2-1.2,3.3-1.7v0.9h489.6V-1c2.7,1.2,5.5,2.3,8.1,3.5
					c10.8,4.7,21.2,9.7,31.2,15c10,5.2,19.6,10.7,28.8,16.4c2.3,1.4,4.6,2.9,6.8,4.3c1.1,0.7,2.2,1.5,3.3,2.2
					c0.6,0.4,1.1,0.7,1.7,1.1h-1.3V223.7z"/>
				<path class="st12" d="M600.8,223.4v83.3V355h0.1c-8.7,4.6-17.9,8.9-27.4,12.9c-4.8,2-9.6,4-14.6,5.8c-1.2,0.5-2.5,0.9-3.7,1.4
					V375H162.6v0.3c-3-0.9-5.9-1.9-8.8-2.9c-5.9-1.9-11.6-4-17.3-6c-45.5-16.7-85.8-37.8-118.7-62.1c-4.1-3-8.1-6.1-12-9.2
					c-1.9-1.6-3.9-3.1-5.7-4.7H1V20.3H0.7c1.9-1.3,3.8-2.6,5.8-3.9c7.8-5.1,16.1-10,24.9-14.6c1.1-0.6,2.2-1.1,3.3-1.7
					c0.6-0.3,1.1-0.6,1.7-0.8v0.6h480.5v-1.3c1.4,0.6,2.7,1.1,4.1,1.7c2.7,1.1,5.4,2.3,8.1,3.5c10.7,4.7,21,9.7,30.9,14.9
					c9.9,5.2,19.5,10.6,28.6,16.3c4.6,2.8,9,5.7,13.3,8.6h-1V223.4z"/>
				<path class="st13" d="M600.8,223.1v82.7v46.3h1.4c-1.1,0.6-2.1,1.2-3.2,1.7c-8.7,4.6-17.8,8.8-27.2,12.8
					c-4.7,2-9.6,3.9-14.5,5.8c-2.5,0.9-5,1.8-7.5,2.7V375H168.1v0.3c-1.5-0.5-3-0.9-4.4-1.4c-2.9-0.9-5.9-1.9-8.8-2.8
					c-5.8-1.9-11.6-3.9-17.2-6c-45.2-16.6-85.2-37.6-117.9-61.7c-4.1-3-8.1-6.1-11.9-9.2c-1.9-1.6-3.8-3.1-5.7-4.7
					c-0.5-0.4-0.9-0.8-1.4-1.2H1V23.3h-1c0.9-0.7,1.9-1.3,2.8-2c1.9-1.3,3.8-2.6,5.7-3.9c7.8-5.1,16-9.9,24.7-14.5
					c2.2-1.1,4.4-2.3,6.6-3.4v0.2h475.5v-0.1c1.4,0.6,2.7,1.1,4.1,1.7c2.7,1.1,5.4,2.3,8,3.5c10.6,4.7,20.9,9.6,30.7,14.8
					c9.9,5.2,19.3,10.6,28.4,16.2c4.5,2.8,8.9,5.7,13.3,8.6c0.5,0.4,1.1,0.7,1.6,1.1h-0.7V223.1z"/>
				<path class="st14" d="M600.8,222.8v82.2V350h1c-0.5,0.3-1.1,0.6-1.6,0.9c-1.1,0.6-2.1,1.1-3.2,1.7c-8.6,4.5-17.6,8.8-27,12.8
					c-4.7,2-9.5,3.9-14.4,5.7c-2.4,0.9-4.9,1.8-7.4,2.7c-1.2,0.4-2.5,0.9-3.8,1.3V375H173.5v0.3c-11.9-3.5-23.4-7.4-34.6-11.5
					C94,347.4,54.3,326.5,21.8,302.6c-4.1-3-8-6-11.8-9.1c-1.9-1.5-3.8-3.1-5.7-4.7c-0.9-0.8-1.9-1.6-2.8-2.4
					c-0.5-0.4-0.9-0.8-1.4-1.2H1V25.4H0.9c0.5-0.3,0.9-0.7,1.4-1c0.9-0.7,1.9-1.3,2.8-2c1.9-1.3,3.8-2.6,5.7-3.8
					c7.7-5.1,15.9-9.9,24.5-14.4c2.2-1.1,4.3-2.2,6.5-3.3c1.1-0.5,2.2-1.1,3.3-1.6v0.6H510v-0.5c5.4,2.2,10.8,4.4,16.1,6.8
					c10.5,4.6,20.7,9.5,30.5,14.7c9.8,5.1,19.2,10.5,28.2,16.1c4.5,2.8,8.9,5.6,13.2,8.5c1.1,0.7,2.1,1.4,3.2,2.2h-0.3V222.8z"/>
				<path class="st15" d="M600.8,222.5V304V348h0.6c-2.1,1.2-4.2,2.3-6.3,3.4c-8.5,4.5-17.5,8.7-26.9,12.7
					c-9.3,3.9-19.1,7.6-29.2,11v0H179v0.3c-1.5-0.4-3-0.9-4.4-1.3c-11.8-3.5-23.3-7.3-34.4-11.4c-44.6-16.3-84-37.1-116.3-60.8
					c-8.1-5.9-15.7-12.1-22.8-18.4h0v-255H0.3c0.4-0.3,0.9-0.7,1.3-1c3.6-2.6,7.3-5.2,11.2-7.7c7.7-5,15.8-9.8,24.3-14.3
					c4.3-2.2,8.7-4.4,13.1-6.5v0.9h454.2v-0.9c1.4,0.5,2.7,1.1,4.1,1.6c5.4,2.2,10.7,4.4,16,6.7c10.5,4.6,20.6,9.5,30.3,14.6
					c9.7,5.1,19.1,10.4,28,16c4.5,2.8,8.8,5.6,13.1,8.5c1.1,0.7,2.1,1.4,3.2,2.2c0.5,0.4,1,0.7,1.6,1.1c0.3,0.2,0.5,0.4,0.8,0.5
					h-0.7V222.5z"/>
				<path class="st16" d="M600.8,222.2v81v42.7h0.1c-0.5,0.3-1,0.6-1.5,0.9c-2.1,1.2-4.2,2.3-6.3,3.4c-8.5,4.5-17.4,8.7-26.7,12.6
					c-9.3,3.9-19,7.6-29,10.9c-2.5,0.8-5,1.7-7.6,2.5V375H184.3v0.1c-3-0.8-5.9-1.7-8.8-2.6c-11.7-3.5-23.1-7.3-34.2-11.3
					c-44.3-16.2-83.4-36.8-115.4-60.4c-8-5.9-15.6-12-22.7-18.2c-0.9-0.8-1.8-1.6-2.6-2.3H1V31.5h-1.1c0.4-0.3,0.9-0.7,1.3-1
					c0.9-0.7,1.8-1.3,2.7-2c3.6-2.6,7.3-5.2,11.1-7.7c7.6-5,15.7-9.7,24.2-14.2c4.2-2.2,8.6-4.4,13-6.5c1.1-0.5,2.2-1,3.4-1.6v1.2
					h443.6v-1.2c2.7,1,5.4,2.1,8.1,3.2c5.4,2.2,10.7,4.4,15.9,6.7c10.4,4.6,20.4,9.4,30.1,14.5c9.7,5.1,18.9,10.4,27.8,15.9
					c4.4,2.8,8.8,5.6,13,8.4c2.1,1.4,4.2,2.9,6.3,4.3c0.5,0.4,1,0.7,1.5,1.1h-1V222.2z"/>
				<path class="st17" d="M600.8,221.8v80.4V343h1.2c-0.5,0.3-1,0.6-1.5,0.9c-1,0.6-2,1.2-3.1,1.7c-2.1,1.1-4.1,2.3-6.2,3.4
					c-8.4,4.4-17.3,8.6-26.5,12.5c-9.2,3.9-18.8,7.5-28.8,10.8c-2.5,0.8-5,1.6-7.5,2.4c-1.3,0.4-2.5,0.8-3.8,1.2V375H194.1v1.2
					c-5.9-1.6-11.8-3.2-17.6-5c-11.6-3.5-22.9-7.2-33.9-11.2c-44-16.1-82.8-36.6-114.6-60c-8-5.9-15.5-11.9-22.5-18.1
					c-1.8-1.6-3.5-3.1-5.2-4.7H1V33.5H0.8c1.7-1.3,3.5-2.6,5.2-3.9c3.6-2.6,7.2-5.1,11-7.6c7.6-4.9,15.6-9.6,24-14.1
					c4.2-2.2,8.5-4.4,12.9-6.5c1.1-0.5,2.2-1,3.3-1.5c0.6-0.3,1.1-0.5,1.7-0.8v0.7h436.8v-0.7c0.7,0.3,1.4,0.5,2,0.8
					c2.7,1,5.4,2.1,8.1,3.2c5.3,2.1,10.6,4.4,15.7,6.6C532,14.2,542,19,551.5,24.1c9.6,5,18.8,10.3,27.6,15.7
					c4.4,2.7,8.7,5.5,12.9,8.3c2.1,1.4,4.2,2.8,6.2,4.3c1,0.7,2,1.4,3,2.2h-0.5V221.8z"/>
				<path class="st18" d="M600.8,221.5v79.9v39.5h0.6c-4,2.3-8.1,4.6-12.2,6.8c-8.4,4.4-17.1,8.5-26.3,12.4
					c-9.2,3.9-18.7,7.4-28.6,10.7c-4.9,1.6-10,3.2-15.1,4.7V375H199.4v0.9c-1.5-0.4-3-0.8-4.4-1.2c-5.9-1.6-11.7-3.2-17.5-4.9
					c-11.5-3.4-22.8-7.2-33.7-11.2c-43.7-16-82.2-36.3-113.8-59.6c-7.9-5.8-15.4-11.8-22.3-18c-1.7-1.5-3.5-3.1-5.2-4.7
					c-0.8-0.8-1.7-1.6-2.5-2.3H1V36.5H0.5c0.8-0.7,1.7-1.3,2.5-2c1.7-1.3,3.4-2.6,5.2-3.9c3.5-2.6,7.2-5.1,10.9-7.6
					c7.5-4.9,15.5-9.6,23.8-14c4.2-2.2,8.5-4.3,12.9-6.4c2.2-1,4.4-2.1,6.6-3.1v0.2h430v-0.2c1.4,0.5,2.7,1,4,1.5
					c2.7,1,5.4,2.1,8,3.1c5.3,2.1,10.5,4.3,15.6,6.6c10.3,4.5,20.2,9.3,29.7,14.3c9.5,5,18.7,10.2,27.4,15.6
					c4.4,2.7,8.6,5.5,12.8,8.3c2.1,1.4,4.1,2.8,6.2,4.3c1,0.7,2,1.4,3,2.2c0.5,0.4,1,0.7,1.5,1.1c0.2,0.2,0.5,0.4,0.7,0.5h-0.7
					V221.5z"/>
				<path class="st19" d="M600.8,221.2v79.3v38.4h0.1c-0.5,0.3-1,0.6-1.5,0.9c-3.9,2.3-8,4.6-12.2,6.8c-8.3,4.4-17,8.5-26.1,12.3
					c-9.1,3.8-18.5,7.4-28.4,10.7c-4.9,1.6-9.9,3.2-15,4.7c-1.3,0.4-2.5,0.7-3.8,1.1V375H204.7v0.7c-3-0.7-5.9-1.5-8.8-2.3
					c-5.9-1.6-11.7-3.2-17.4-4.9c-11.4-3.4-22.6-7.1-33.4-11.1c-43.4-15.9-81.6-36-113-59.1c-7.8-5.8-15.2-11.7-22.2-17.8
					c-3.5-3.1-6.8-6.2-10.1-9.3H1V39.5H0.3c6.5-5.4,13.6-10.5,21-15.4c7.5-4.9,15.4-9.5,23.7-13.9c4.2-2.2,8.4-4.3,12.8-6.4
					c2.2-1,4.4-2,6.6-3c1.1-0.5,2.2-1,3.4-1.5v0.4h419.5v-0.4c43.4,15.9,81.6,36,113,59.1c0.5,0.4,1,0.7,1.5,1.1h-0.9V221.2z"/>
				<path class="st20" d="M600.8,220.9v78.7V336h0.9c-0.5,0.3-1,0.6-1.4,0.9c-1,0.6-1.9,1.2-2.9,1.7c-3.9,2.3-7.9,4.5-12.1,6.7
					c-8.2,4.3-16.9,8.4-25.9,12.2c-9,3.8-18.4,7.3-28.1,10.6c-4.9,1.6-9.8,3.2-14.8,4.7c-2.5,0.7-5.1,1.5-7.6,2.2
					c-1.3,0.4-2.6,0.7-3.8,1v-1h-295v0.3c-1.5-0.4-3-0.7-4.4-1.1c-2.9-0.7-5.9-1.5-8.8-2.3c-5.8-1.5-11.6-3.2-17.3-4.9
					c-11.4-3.4-22.4-7.1-33.2-11c-43.1-15.8-81.1-35.8-112.2-58.7c-7.8-5.7-15.1-11.6-22-17.7c-3.4-3-6.8-6.1-10-9.2
					c-0.8-0.8-1.6-1.6-2.4-2.3H1V42.5H0.2c0.8-0.7,1.6-1.3,2.4-2c6.5-5.3,13.5-10.4,20.9-15.3c14.8-9.7,31.4-18.4,49.4-26v0.6h409.1
					v-0.6c1.4,0.5,2.7,1,4.1,1.5c43,15.8,81.1,35.8,112.2,58.7c1,0.7,1.9,1.4,2.9,2.2h-0.2V220.9z"/>
				<path class="st21" d="M600.8,220.6v78.2V334h0.3c-1.9,1.2-3.8,2.3-5.8,3.5c-3.9,2.3-7.9,4.5-12,6.7c-8.2,4.3-16.8,8.4-25.7,12.1
					c-17.9,7.6-37.3,14-57.9,19.3V375H219.6v1c-1.5-0.3-3-0.7-4.4-1c-23.6-5.5-46.3-12.3-67.6-20.1c-42.7-15.6-80.5-35.5-111.4-58.3
					c-7.7-5.7-15-11.6-21.9-17.6c-3.4-3-6.7-6.1-9.9-9.2c-0.8-0.8-1.6-1.5-2.4-2.3c-0.4-0.4-0.8-0.8-1.2-1.2H1V45.5H0.1
					c1.6-1.3,3.1-2.7,4.7-4c6.4-5.3,13.4-10.3,20.7-15.1C40.3,16.8,56.7,8.1,74.6,0.6c1.1-0.5,2.2-0.9,3.4-1.4v0.7h398.7v-0.7
					c2.7,0.9,5.4,1.9,8.1,2.9c42.7,15.6,80.5,35.5,111.4,58.3c1.9,1.4,3.8,2.9,5.7,4.3h-1V220.6z"/>
				<path class="st22" d="M600.8,220.3v77.6v33.2h1c-0.9,0.6-1.9,1.2-2.8,1.8c-1.9,1.2-3.8,2.3-5.7,3.4c-3.9,2.3-7.8,4.5-11.9,6.6
					c-8.1,4.3-16.7,8.3-25.5,12.1c-17.8,7.5-37,13.9-57.5,19.2c-2.6,0.7-5.1,1.3-7.7,1.9v-1H224.7v0.5c-3-0.6-5.9-1.3-8.8-2
					c-23.5-5.5-45.9-12.2-67.1-20c-42.4-15.5-79.9-35.3-110.6-57.9c-7.7-5.6-14.9-11.5-21.7-17.5c-3.4-3-6.7-6-9.8-9.1
					c-1.6-1.5-3.1-3.1-4.7-4.6c-0.8-0.8-1.5-1.6-2.3-2.3H1V48.5H0.1c0.8-0.7,1.5-1.3,2.3-2c1.5-1.3,3.1-2.7,4.7-4
					c6.4-5.2,13.3-10.3,20.6-15C42.3,17.9,58.6,9.4,76.4,1.8c2.2-0.9,4.5-1.9,6.7-2.8v0.7h388.3V-1c1.4,0.5,2.7,0.9,4,1.4
					c2.7,0.9,5.4,1.9,8,2.9c42.4,15.5,79.9,35.3,110.6,57.8c1.9,1.4,3.8,2.8,5.7,4.3c0.5,0.4,0.9,0.7,1.4,1.1h-0.3V220.3z"/>
				<path class="st23" d="M600.8,220v77v32.1h0.2c-0.5,0.3-0.9,0.6-1.4,0.9c-0.9,0.6-1.8,1.2-2.8,1.7c-1.9,1.2-3.8,2.3-5.7,3.4
					c-3.8,2.2-7.8,4.4-11.8,6.6c-8.1,4.2-16.5,8.2-25.4,12c-17.7,7.4-36.8,13.8-57.1,19c-2.5,0.6-5.1,1.3-7.7,1.9
					c-1.3,0.3-2.6,0.6-3.9,0.9V375H234.3v1c-5.9-1.2-11.8-2.5-17.7-3.9c-23.3-5.5-45.6-12.1-66.6-19.8
					c-42.1-15.4-79.3-35-109.7-57.4C25,283.6,11.4,271.7-0.2,259.2H1V51.5H0.2c2.9-2.7,6-5.4,9.2-8c6.4-5.2,13.2-10.2,20.4-14.9
					c14.5-9.5,30.7-18,48.3-25.4c2.2-0.9,4.4-1.8,6.7-2.7C86,0,87.1-0.5,88.2-0.9v0.7h378V-1c5.4,1.8,10.8,3.7,16,5.6
					C524.4,20,561.6,39.5,592,62c1.9,1.4,3.8,2.8,5.6,4.2c0.9,0.7,1.8,1.4,2.8,2.1c0.5,0.4,0.9,0.7,1.4,1.1h-1V220z"/>
				<path class="st24" d="M600.8,219.7v76.4v30.1h0.8c-0.4,0.3-0.9,0.6-1.3,0.9c-14.4,9.4-30.5,17.9-48,25.3
					c-17.5,7.4-36.5,13.7-56.6,18.9c-5,1.3-10.1,2.5-15.3,3.7c-1.3,0.3-2.6,0.6-3.9,0.8V375H243.8v1.2c-3-0.6-5.9-1.1-8.9-1.7
					c-5.9-1.2-11.7-2.5-17.5-3.8c-23.1-5.4-45.2-12-66.1-19.7c-41.8-15.3-78.7-34.7-108.9-57c-15.1-11.1-28.6-23-40.1-35.3
					c-0.7-0.8-1.4-1.5-2.1-2.3h1V54.5H0.4c0.7-0.7,1.4-1.4,2.2-2c2.9-2.7,6-5.3,9.1-7.9c6.3-5.2,13.1-10.1,20.3-14.8
					c14.4-9.4,30.5-17.9,48-25.3c4.4-1.8,8.9-3.6,13.4-5.3v0.7h367.8V-1c1.4,0.4,2.7,0.9,4,1.3c5.4,1.8,10.7,3.6,15.9,5.5
					c41.8,15.3,78.7,34.7,108.9,57c3.8,2.8,7.5,5.6,11,8.5h-0.2V219.7z"/>
				<path class="st25" d="M600.8,219.4v75.9v29h0c-0.9,0.6-1.8,1.2-2.7,1.8c-14.3,9.3-30.2,17.7-47.6,25.1
					c-17.4,7.3-36.2,13.6-56.2,18.7c-5,1.3-10.1,2.5-15.2,3.6c-2.6,0.6-5.2,1.1-7.8,1.6V375H248.8v0.6c-1.5-0.3-3-0.5-4.4-0.8
					c-3-0.6-5.9-1.1-8.8-1.7c-5.9-1.2-11.7-2.5-17.4-3.8c-23-5.4-44.9-11.9-65.7-19.5c-41.5-15.2-78.1-34.5-108.1-56.6
					c-15-11-28.3-22.8-39.8-35.1c-1.4-1.5-2.8-3.1-4.2-4.6H1v-196H0.6c1.4-1.4,2.8-2.7,4.3-4.1c2.9-2.7,5.9-5.3,9-7.9
					c6.3-5.1,13-10,20.1-14.7c14.3-9.3,30.2-17.7,47.6-25.1C86,3.9,90.5,2.1,95,0.4c1.1-0.4,2.3-0.8,3.4-1.3v0.6H456V-1
					c2.7,0.8,5.4,1.7,8.1,2.6c5.3,1.8,10.6,3.6,15.8,5.5c41.5,15.2,78.1,34.5,108.1,56.6c3.7,2.8,7.4,5.6,10.9,8.4
					c0.9,0.7,1.8,1.4,2.6,2.1h-0.7V219.4z"/>
				<path class="st26" d="M600.8,219.1v75.3v27h0.5c-1.7,1.2-3.5,2.4-5.2,3.5c-14.2,9.3-30,17.6-47.3,24.9
					c-17.3,7.3-35.9,13.5-55.8,18.6c-9.9,2.5-20.1,4.8-30.6,6.7V375H258.2v0.6c-1.5-0.2-3-0.5-4.5-0.8c-11.9-2.1-23.5-4.4-34.9-7.1
					c-22.8-5.3-44.6-11.8-65.2-19.4c-41.2-15.1-77.5-34.2-107.3-56.1c-14.9-11-28.1-22.6-39.5-34.8c-1.4-1.5-2.8-3.1-4.2-4.6
					c-0.7-0.8-1.4-1.5-2-2.3H1V60.4H1c0.7-0.7,1.4-1.4,2-2c1.4-1.4,2.8-2.7,4.2-4c2.9-2.7,5.9-5.3,9-7.8c6.2-5.1,12.9-10,20-14.6
					c14.2-9.3,30-17.6,47.3-24.9c4.3-1.8,8.7-3.6,13.2-5.3c2.2-0.8,4.5-1.7,6.8-2.5v0.5h347.4v-0.7c1.4,0.4,2.7,0.8,4,1.3
					c2.7,0.8,5.3,1.7,8,2.6c5.3,1.8,10.5,3.6,15.7,5.5c41.2,15.1,77.5,34.2,107.3,56.1c3.7,2.7,7.3,5.5,10.9,8.3
					c1.8,1.4,3.5,2.8,5.2,4.3h-1.1V219.1z"/>
				<path class="st27" d="M600.8,218.8v74.7v25h0.9c-0.8,0.6-1.7,1.2-2.5,1.8c-1.7,1.2-3.4,2.3-5.2,3.5
					c-14.1,9.2-29.8,17.5-46.9,24.7c-17.1,7.2-35.7,13.4-55.4,18.5c-9.8,2.5-20,4.8-30.4,6.7c-5.2,1-10.5,1.9-15.8,2.7V375H272v1.2
					c-6-0.9-11.9-1.8-17.8-2.8c-11.8-2-23.3-4.4-34.6-7c-22.6-5.3-44.2-11.8-64.7-19.2c-40.9-15-76.9-34-106.5-55.7
					c-14.8-10.9-27.9-22.5-39.2-34.5c-2.8-3-5.5-6.1-8.1-9.2c-0.3-0.4-0.6-0.8-1-1.2H1V64.3H0.4c0.3-0.3,0.6-0.7,1-1
					c21-21.9,49.6-40.5,83.8-55c4.3-1.8,8.7-3.5,13.1-5.2c2.2-0.8,4.5-1.7,6.7-2.5c1.1-0.4,2.3-0.8,3.4-1.2v0.4h337.4v-0.6
					c10.8,3.2,21.3,6.7,31.5,10.4c40.9,15,77,34,106.5,55.7c3.7,2.7,7.3,5.5,10.8,8.3c1.7,1.4,3.5,2.8,5.2,4.2
					c0.4,0.4,0.8,0.7,1.3,1.1h-0.2V218.8z"/>
				<path class="st28" d="M600.8,218.5v74.2v23h1.2c-3.3,2.4-6.7,4.7-10.1,7c-14,9.1-29.6,17.3-46.5,24.5
					c-17,7.2-35.4,13.3-54.9,18.3c-9.8,2.5-19.8,4.7-30.1,6.6c-5.2,1-10.4,1.8-15.7,2.7c-2.6,0.4-5.3,0.8-8,1.2v-1H281.3v0.9
					c-3-0.4-6-0.8-8.9-1.2c-5.9-0.9-11.8-1.8-17.7-2.8c-11.7-2-23.1-4.4-34.4-7c-22.4-5.3-43.9-11.7-64.2-19.1
					c-40.6-14.8-76.4-33.7-105.7-55.3c-14.7-10.8-27.7-22.3-38.9-34.3c-2.8-3-5.5-6-8.1-9.1c-1.3-1.5-2.5-3.1-3.8-4.6H1V68.3H0
					c1.2-1.4,2.5-2.8,3.8-4.1C24.6,42.5,53,24,87,9.6c8.5-3.6,17.3-6.9,26.5-10v0.1h327.3v-0.4c1.3,0.4,2.7,0.8,4,1.2
					C455.6,3.8,466,7.3,476.1,11c40.6,14.8,76.4,33.7,105.7,55.3c3.7,2.7,7.2,5.4,10.7,8.2c1.7,1.4,3.4,2.8,5.1,4.2
					c0.8,0.7,1.7,1.4,2.5,2.1c0.4,0.4,0.8,0.7,1.2,1.1h-0.5V218.5z"/>
				<path class="st29" d="M600.8,218.1v73.6v21.1h1.4c-0.8,0.6-1.6,1.2-2.4,1.8c-3.3,2.4-6.6,4.7-10.1,7
					c-13.8,9.1-29.3,17.2-46.2,24.3c-33.7,14.2-73,24.4-115.9,29.6V375H290.5v0.5c-95.9-11-179.8-43-238-85.8
					c-14.5-10.7-27.5-22.1-38.6-34c-2.8-3-5.4-6-8-9c-1.3-1.5-2.5-3-3.7-4.6c-0.6-0.8-1.2-1.5-1.8-2.3H1V71.2H0.6
					c0.6-0.7,1.2-1.4,1.8-2.1c1.2-1.4,2.5-2.7,3.8-4.1C26.8,43.5,55,25.2,88.7,10.9C97.2,7.4,106,4.1,115,1c2.3-0.8,4.6-1.5,6.9-2.2
					v1h313.9v-0.1c2.7,0.8,5.4,1.5,8,2.3c10.6,3.2,21,6.6,31,10.3c40.2,14.7,75.8,33.4,104.9,54.9c7.3,5.4,14.1,10.9,20.6,16.6
					c0.4,0.4,0.8,0.7,1.2,1.1h-0.7V218.1z"/>
				<path class="st30" d="M600.8,217.8v73v20h0.3c-0.4,0.3-0.8,0.6-1.2,0.9c-0.8,0.6-1.6,1.2-2.4,1.8c-3.2,2.4-6.6,4.7-10,6.9
					c-13.7,9-29.1,17.1-45.8,24.1c-33.5,14.1-72.5,24.2-115,29.4c-5.3,0.6-10.7,1.2-16.1,1.7V375H308.4v0.7
					c-5.9-0.5-11.8-1.1-17.8-1.8c-95.1-10.9-178.4-42.6-236.2-85.2c-14.4-10.6-27.3-21.9-38.3-33.8c-5.5-5.9-10.6-12-15.2-18.1
					c-0.3-0.4-0.6-0.8-0.9-1.2H1V75.2H0.4c0.3-0.3,0.6-0.7,0.9-1c2.3-2.8,4.8-5.5,7.3-8.2C29.1,44.5,57,26.4,90.5,12.2
					c8.4-3.5,17.1-6.8,26.1-9.8c2.3-0.8,4.5-1.5,6.8-2.2c1.1-0.4,2.3-0.7,3.5-1.1v0.7h300v-1c5.4,1.4,10.7,2.9,16,4.5
					c10.5,3.1,20.8,6.5,30.8,10.2c39.9,14.6,75.2,33.2,104.1,54.4c7.2,5.3,14,10.8,20.4,16.4c0.8,0.7,1.6,1.4,2.4,2.1
					c0.4,0.4,0.8,0.7,1.2,1.1h-0.9V217.8z"/>
				<path class="st31" d="M600.8,217.5V290v18h0.4c-0.4,0.3-0.8,0.6-1.2,0.9c-1.5,1.2-3.1,2.4-4.7,3.6c-3.2,2.3-6.5,4.6-9.9,6.9
					c-13.6,8.9-28.9,16.9-45.5,23.9c-33.2,14-71.9,24-114.1,29.1c-10.5,1.3-21.3,2.3-32.3,2.9V375H326v0.4
					c-11.6-0.7-23.3-1.6-35.1-3c-94.4-10.8-177-42.3-234.3-84.5c-14.3-10.5-27.1-21.8-38-33.5c-5.5-5.9-10.5-11.9-15-18
					c-1.1-1.5-2.2-3.1-3.3-4.6H1V79.1H0.3c1.1-1.4,2.2-2.8,3.4-4.2c2.3-2.8,4.7-5.5,7.3-8.1C31.3,45.6,59,27.6,92.3,13.5
					c8.3-3.5,16.9-6.8,25.9-9.7c4.5-1.5,9-2.9,13.7-4.3v0.3H422v-0.6c1.3,0.3,2.7,0.7,4,1.1c5.4,1.4,10.7,2.9,15.9,4.5
					c10.5,3.1,20.7,6.5,30.6,10.1c39.6,14.5,74.6,32.9,103.2,54c7.2,5.3,13.9,10.7,20.3,16.3c1.6,1.4,3.1,2.8,4.7,4.2
					c0.4,0.4,0.8,0.7,1.1,1.1h-1V217.5z"/>
				<path class="st32" d="M600.8,217.2v71.9v16.1h0.5c-0.4,0.3-0.8,0.6-1.1,0.9c-0.8,0.6-1.5,1.2-2.3,1.8c-1.5,1.2-3.1,2.4-4.7,3.5
					c-3.2,2.3-6.5,4.6-9.8,6.8c-13.5,8.8-28.6,16.8-45.1,23.8c-33,13.9-71.3,23.8-113.2,28.9c-41.8,5.1-87.2,5.4-134,0
					c-93.7-10.7-175.6-42-232.5-83.8c-14.2-10.5-26.8-21.6-37.7-33.2C15.5,248,10.5,242.1,6,236c-1.1-1.5-2.2-3-3.3-4.6
					c-0.5-0.8-1.1-1.5-1.6-2.3c-0.3-0.4-0.5-0.8-0.8-1.2H1V84.1h-1.4C3.8,78.4,8.3,73,13.4,67.7c20.2-21.1,47.7-39,80.6-52.9
					c8.2-3.5,16.8-6.7,25.7-9.7c4.4-1.5,9-2.9,13.6-4.2c2.3-0.7,4.6-1.3,6.9-2v0.9h276.9v-0.2c2.7,0.7,5.4,1.4,8,2.1
					c5.3,1.4,10.6,2.9,15.8,4.4c10.4,3.1,20.5,6.4,30.3,10c39.3,14.4,74,32.7,102.4,53.6c7.1,5.2,13.8,10.6,20.1,16.2
					c1.6,1.4,3.1,2.8,4.6,4.2c0.8,0.7,1.5,1.4,2.3,2.1c0.4,0.4,0.7,0.7,1.1,1.1h-0.9V217.2z"/>
				<path class="st33" d="M600.8,216.9v71.3v14.2h0.4c-0.4,0.3-0.7,0.6-1.1,0.9c-5.9,4.8-12.2,9.4-18.9,13.8
					c-13.4,8.8-28.4,16.7-44.8,23.6c-32.7,13.8-70.8,23.6-112.3,28.7c-41.5,5.1-86.5,5.3-132.9,0c-92.9-10.6-174.2-41.6-230.6-83.2
					c-14.1-10.4-26.6-21.4-37.4-33c-5.4-5.8-10.3-11.7-14.8-17.7c-2.2-3-4.4-6-6.4-9.1c-0.5-0.8-1-1.5-1.5-2.3H1V86.9H0.7
					c0.5-0.7,1-1.4,1.5-2.1c4.1-5.6,8.6-11,13.6-16.3c20-20.9,47.3-38.7,80-52.5c16.3-6.9,34-12.8,52.8-17.6v1.3h259.7v-0.7
					c21.6,5.1,42.2,11.2,61.7,18.4c39,14.3,73.4,32.4,101.6,53.2c7,5.2,13.7,10.5,20,16c3.1,2.8,6.1,5.5,9,8.4
					c0.4,0.4,0.7,0.7,1.1,1.1h-0.9V216.9z"/>
				<path class="st34" d="M600.8,216.6v70.7v11.3h1.3c-1.4,1.2-2.8,2.4-4.3,3.6c-5.8,4.8-12.1,9.4-18.7,13.7
					c-13.3,8.7-28.2,16.5-44.4,23.4c-32.4,13.7-70.2,23.4-111.4,28.5c-41.2,5-85.8,5.3-131.8,0c-92.2-10.5-172.8-41.3-228.8-82.5
					c-14-10.3-26.4-21.3-37.1-32.7c-5.3-5.7-10.2-11.6-14.7-17.5c-2.2-3-4.3-6-6.3-9c-1-1.5-2-3-2.9-4.6c-0.5-0.8-0.9-1.5-1.4-2.3H1
					V91.9H0.4c0.5-0.7,0.9-1.4,1.4-2.1c0.9-1.4,1.9-2.8,2.9-4.2c4-5.6,8.5-10.9,13.5-16.1c19.8-20.7,46.9-38.3,79.4-52
					c16.2-6.8,33.8-12.7,52.4-17.5c1.2-0.3,2.3-0.6,3.5-0.9v0.7h246v-1.1c2.7,0.6,5.4,1.2,8.1,1.8c21.4,5,41.9,11.1,61.2,18.2
					c38.7,14.2,72.8,32.1,100.8,52.7c7,5.1,13.6,10.5,19.8,15.9c3.1,2.7,6.1,5.5,9,8.3c0.7,0.7,1.4,1.4,2.1,2.1
					c0.4,0.4,0.7,0.7,1.1,1.1h-0.7V216.6z"/>
				<path class="st35" d="M600.8,216.3v70.2v9.4h1.1c-0.7,0.6-1.4,1.2-2.1,1.8c-1.4,1.2-2.8,2.4-4.3,3.6c-5.8,4.7-12,9.3-18.6,13.6
					c-13.2,8.6-28,16.4-44,23.2c-32.2,13.6-69.6,23.3-110.5,28.2c-40.8,5-85.1,5.3-130.8,0c-91.4-10.5-171.5-41-226.9-81.8
					C37,264.1,15.4,241,1.6,216.6c-0.4-0.8-0.9-1.5-1.3-2.3H1V96.9H0.3c0.4-0.7,0.9-1.4,1.3-2.1c1.8-2.8,3.6-5.6,5.6-8.4
					c4-5.5,8.5-10.9,13.4-16c19.7-20.6,46.6-38,78.7-51.6c16.1-6.8,33.5-12.6,52-17.3c2.3-0.6,4.6-1.2,7-1.7v0.2h236.5v-0.6
					c1.3,0.3,2.7,0.6,4,0.9c2.7,0.6,5.3,1.2,8,1.8c21.2,5,41.5,11,60.7,18.1c38.4,14,72.2,31.9,100,52.3
					c6.9,5.1,13.5,10.4,19.6,15.8c3.1,2.7,6,5.4,8.9,8.2c1.4,1.4,2.8,2.8,4.2,4.2c0.3,0.4,0.7,0.7,1,1.1h-0.5V216.3z"/>
				<path class="st36" d="M600.8,216v69.6v7.5h0.8c-2.7,2.5-5.4,4.9-8.3,7.2c-5.7,4.7-11.9,9.2-18.4,13.5
					c-13.1,8.6-27.7,16.3-43.7,23c-63.8,26.9-148.6,38.4-239.3,28c-90.7-10.4-170.1-40.6-225.1-81.2c-27.5-20.3-48.9-43.1-62.7-67.3
					c-0.9-1.5-1.7-3-2.5-4.6c-0.4-0.8-0.8-1.5-1.2-2.3H1V101.8H0.4c0.4-0.7,0.8-1.4,1.2-2.2c0.8-1.4,1.6-2.9,2.5-4.3
					c1.7-2.8,3.6-5.6,5.6-8.3c4-5.5,8.4-10.8,13.3-15.9C42.5,50.8,69.2,33.5,101.1,20c16-6.7,33.2-12.5,51.6-17.2
					c4.6-1.2,9.2-2.3,14-3.3v0.3h219.5v-0.7c1.4,0.3,2.7,0.5,4,0.8c5.4,1.1,10.7,2.3,16,3.5c21.1,4.9,41.2,11,60.2,17.9
					c38.1,13.9,71.7,31.6,99.2,51.9c13.8,10.1,26,20.9,36.5,32.2h-1.2V216z"/>
				<path class="st37" d="M600.8,215.7v69v5.6h0.4c-0.6,0.6-1.3,1.2-2,1.8c-2.6,2.4-5.4,4.8-8.2,7.1c-5.7,4.7-11.8,9.1-18.3,13.4
					c-13,8.5-27.5,16.1-43.3,22.8c-63.3,26.7-147.4,38.1-237.3,27.8C202.1,353,123.4,323,68.8,282.8C41.5,262.7,20.3,240,6.7,216
					c-1.7-3-3.3-6-4.7-9.1c-0.7-1.5-1.4-3-2.1-4.6H1V109h-1.3c0.7-1.5,1.4-2.9,2.1-4.4c5.9-11.5,13.8-22.4,23.5-32.5
					c19.4-20.2,45.8-37.4,77.4-50.8c15.8-6.7,32.9-12.4,51.1-17.1c4.5-1.2,9.2-2.3,13.8-3.3c2.3-0.5,4.7-1,7.1-1.5v0.3h206.6v0
					c2.7,0.5,5.4,1,8,1.6c5.3,1.1,10.6,2.2,15.8,3.5c20.9,4.9,40.9,10.9,59.7,17.8c37.7,13.8,71.1,31.4,98.4,51.5
					c13.6,10,25.8,20.7,36.2,31.9c0.7,0.7,1.3,1.4,1.9,2.1h-0.7V215.7z"/>
				<path class="st38" d="M600.8,215.4v68.5v2.8h0.9c-0.3,0.3-0.6,0.6-0.9,0.9c-1.3,1.2-2.5,2.4-3.8,3.7c-2.6,2.4-5.3,4.8-8.2,7.1
					c-5.6,4.6-11.7,9.1-18.1,13.3c-12.9,8.4-27.3,16-43,22.6c-62.8,26.5-146.2,37.8-235.4,27.6c-89.2-10.2-167.3-40-221.4-79.8
					C43.8,262,22.7,239.5,9.2,215.7c-3.4-6-6.3-12-8.7-18.1H1v-83.7H0.5c1.2-2.9,2.6-5.8,4-8.7C10.4,93.8,18.2,83,27.8,73
					C47,52.9,73.2,35.9,104.6,22.6c15.7-6.6,32.7-12.3,50.7-16.9c9-2.3,18.3-4.4,27.8-6.1v0.2h189.7v0c10.8,1.9,21.4,4,31.7,6.4
					c20.7,4.8,40.5,10.8,59.2,17.6c37.4,13.7,70.5,31.1,97.6,51c13.5,10,25.6,20.6,35.9,31.6c1.3,1.4,2.6,2.8,3.8,4.2h-0.3V215.4z"
					/>
				<path class="st39" d="M600.8,215.1V283h1.2c-19,19.9-45,36.8-76.2,49.9c-62.2,26.3-145,37.5-233.4,27.3
					C204,350.1,126.6,320.6,72.9,281c-26.8-19.8-47.7-42-61.1-65.6c-3.3-5.9-6.2-11.9-8.6-17.9c-1.2-3-2.3-6.1-3.2-9.1h1v-65h-1.2
					c1.9-6,4.3-11.8,7.2-17.5c5.8-11.3,13.6-22,23.1-32c19-19.9,45-36.8,76.2-49.9c15.6-6.6,32.4-12.2,50.3-16.8
					c8.9-2.3,18.2-4.3,27.6-6.1c4.7-0.9,9.5-1.7,14.3-2.4v1.2h157.6v-1.1c5.4,0.8,10.8,1.6,16.2,2.6c10.7,1.9,21.2,4,31.4,6.4
					c20.5,4.8,40.2,10.7,58.7,17.5c37.1,13.6,69.9,30.8,96.7,50.6c13.4,9.9,25.4,20.4,35.6,31.4c1.3,1.4,2.5,2.8,3.8,4.1
					c0.6,0.7,1.2,1.4,1.8,2.1c0.3,0.3,0.6,0.7,0.9,1h-0.6V215.1z"/>
				<path class="st40" d="M600.8,214.8v35.6v29.9h0.6c-0.6,0.6-1.2,1.2-1.8,1.9c-18.9,19.7-44.7,36.5-75.5,49.5
					c-61.7,26-143.7,37.1-231.4,27.1c-87.7-10-164.5-39.3-217.7-78.5c-26.6-19.6-47.3-41.7-60.6-65.1c-6.6-11.7-11.4-23.7-14.1-36H1
					v-46.3H0.1c0.7-3,1.5-6,2.4-9c1.9-5.9,4.3-11.7,7.1-17.3c5.8-11.3,13.5-21.9,22.9-31.7C51.5,55,77.3,38.2,108.1,25.2
					c15.4-6.5,32.1-12.1,49.9-16.6c8.9-2.3,18-4.3,27.4-6c4.7-0.9,9.4-1.7,14.2-2.4c2.4-0.4,4.8-0.7,7.2-1.1v0.7h141v-0.7
					c2.7,0.4,5.4,0.7,8.1,1.1c5.4,0.8,10.7,1.6,16,2.5c10.6,1.8,21,4,31.2,6.3c20.4,4.8,39.8,10.6,58.3,17.3
					c36.8,13.5,69.3,30.6,95.9,50.2c13.3,9.8,25.1,20.2,35.3,31.1c2.5,2.7,5,5.5,7.3,8.3c0.6,0.7,1.2,1.4,1.7,2.1h-0.8V214.8z"/>
				<path class="st41" d="M600.8,214.5v35.3v26.8h0.7c-0.3,0.3-0.6,0.6-0.8,0.9c-1.1,1.2-2.3,2.5-3.4,3.7
					c-18.7,19.6-44.3,36.2-74.9,49.1c-61.2,25.8-142.5,36.8-229.5,26.9c-87-10-163.1-39-215.9-77.8c-26.4-19.4-46.9-41.3-60.1-64.5
					c-6.6-11.6-11.3-23.5-14-35.7c-1.3-6.1-2.2-12.2-2.5-18.3s-0.1-12.3,0.8-18.5C7.6,93,48.7,52.3,109.9,26.5
					C140.5,13.6,176.1,4.4,215-0.3v0.1h124.4v-0.2c87,10,163.1,39,215.9,77.8c13.2,9.7,24.9,20.1,35,30.9c2.5,2.7,4.9,5.4,7.2,8.2
					c1.2,1.4,2.3,2.8,3.4,4.2h-0.1V214.5z"/>
				<path class="st42" d="M600.8,214.1v35v23.8h0.7c-2.1,2.5-4.3,5-6.6,7.4c-18.6,19.4-43.9,35.9-74.2,48.7
					c-60.7,25.6-141.3,36.5-227.5,26.6c-86.2-9.9-161.7-38.6-214-77.2c-26.2-19.3-46.5-41-59.6-64c-13-23-18.7-47.3-15.6-71.8
					C10.3,93.7,51,53.4,111.7,27.8C142,15,177.3,5.9,215.8,1.2c9.6-1.2,19.5-2.1,29.5-2.7v1.3h77.8v-0.2c5.3,0.5,10.7,1,16.1,1.6
					c86.2,9.9,161.7,38.6,214,77.2c13.1,9.6,24.7,19.9,34.7,30.6c5,5.4,9.6,10.8,13.7,16.4h-0.8V214.1z"/>
				<path class="st43" d="M600.8,213.8v34.7v19.8h1.2c-1,1.3-2,2.5-3,3.8c-2.1,2.5-4.3,4.9-6.6,7.3c-18.4,19.2-43.5,35.6-73.6,48.3
					c-60.2,25.4-140.1,36.2-225.6,26.4c-85.5-9.8-160.3-38.3-212.2-76.5C29.2,239.4,0.3,191.5,6.6,143
					c6.3-48.5,46.7-88.5,106.8-113.9c30.1-12.7,65.1-21.7,103.3-26.4c19.1-2.3,39-3.6,59.4-3.6c20.5,0,41.5,1.1,62.8,3.6
					c85.5,9.8,160.3,38.3,212.2,76.5c13,9.6,24.5,19.7,34.4,30.3c5,5.3,9.5,10.7,13.6,16.3c1,1.4,2,2.8,3,4.2h-1.4V213.8z"/>
				<path class="st44" d="M600.8,213.5v34.4v17.7h0.2c-0.5,0.6-1,1.3-1.4,1.9c-1,1.3-2,2.5-3,3.7c-2.1,2.5-4.2,4.9-6.5,7.3
					c-18.2,19.1-43.1,35.3-73,47.8c-59.6,25.2-138.9,35.9-223.6,26.2c-84.7-9.7-158.9-38-210.3-75.9C31.7,238.9,3,191.4,9.3,143.3
					c6.3-48.1,46.3-87.7,105.9-112.9C145,17.8,179.7,8.9,217.6,4.2c37.9-4.6,78.8-4.9,121.2,0c84.7,9.7,158.9,38,210.3,75.8
					c12.9,9.5,24.3,19.5,34.1,30.1c4.9,5.3,9.4,10.6,13.5,16.1c1,1.4,2,2.7,3,4.1c0.5,0.7,1,1.4,1.4,2.1h-0.3V213.5z"/>
				<path class="st45" d="M600.8,213.2v34.1v13.8h0.5c-0.4,0.6-0.9,1.3-1.4,1.9c-3.7,5.1-7.8,10-12.3,14.7
					c-18.1,18.9-42.8,34.9-72.3,47.4c-59.1,24.9-137.7,35.6-221.6,26c-84-9.6-157.5-37.6-208.5-75.2c-51-37.5-79.4-84.6-73.2-132.3
					c6.2-47.7,45.9-86.9,105-111.9c29.6-12.5,64-21.4,101.5-25.9c37.5-4.6,78.2-4.8,120.2,0c84,9.6,157.5,37.6,208.5,75.2
					c12.7,9.4,24.1,19.4,33.8,29.8c4.9,5.2,9.3,10.5,13.4,16c2,2.7,3.9,5.5,5.7,8.2c0.5,0.7,0.9,1.4,1.3,2.1h-0.5V213.2z"/>
				<path class="st46" d="M600.8,212.9v33.8v9.8h0.5c-0.4,0.6-0.8,1.3-1.3,1.9c-0.9,1.3-1.7,2.5-2.6,3.8c-3.6,5-7.7,9.9-12.2,14.6
					c-17.9,18.7-42.4,34.6-71.7,47c-58.6,24.7-136.4,35.3-219.7,25.7C127.4,330.5,2.4,238.4,14.7,143.9
					c6.1-47.3,45.5-86.2,104-110.9C148,20.6,182.1,11.8,219.3,7.3c37.2-4.5,77.5-4.8,119.1,0c83.2,9.5,156.1,37.3,206.6,74.5
					c12.6,9.3,23.9,19.2,33.5,29.5c4.8,5.2,9.3,10.5,13.3,15.8c2,2.7,3.9,5.4,5.7,8.1c0.9,1.4,1.8,2.7,2.6,4.1
					c0.4,0.7,0.8,1.4,1.2,2.1h-0.5V212.9z"/>
				<path class="st47" d="M600.8,212.6v33.5v5.9h0.3c-0.4,0.6-0.8,1.3-1.2,1.9c-1.6,2.6-3.3,5.1-5.1,7.6c-3.6,5-7.6,9.8-12.1,14.4
					c-17.8,18.6-42,34.3-71,46.6C453.7,347,376.6,357.4,294.1,348C129.1,329.1,5.2,237.9,17.4,144.2c6.1-46.8,45-85.4,103.1-109.9
					C178.5,9.8,255.7-0.6,338.2,8.8c82.5,9.4,154.7,37,204.8,73.9c25,18.4,44.5,39.2,57,61.2c0.4,0.7,0.8,1.4,1.1,2.1h-0.3V212.6z"
					/>
				<path class="st48" d="M600.8,212.3v33.2h1c-5.4,10.5-12.6,20.4-21.4,29.6c-17.6,18.4-41.6,34-70.4,46.2
					c-57.5,24.3-134,34.6-215.8,25.3C130.7,327.8,8,237.3,20.1,144.5c6-46.4,44.6-84.6,102.2-108.9C179.8,11.3,256.2,1,338,10.3
					c81.8,9.4,153.3,36.6,203,73.2c24.8,18.3,44.1,38.9,56.5,60.7c1.5,2.7,3,5.5,4.3,8.2h-0.9V212.3z"/>
				<path class="st49" d="M600.8,212v16.9v12.1h0.3c-0.6,1.3-1.2,2.6-1.9,3.9c-5.3,10.4-12.4,20.2-21.2,29.3
					c-17.4,18.2-41.3,33.7-69.8,45.7c-57,24.1-132.8,34.3-213.8,25c-162-18.5-283.7-108.1-271.7-200.1C28.7,98.8,67,61,124,36.9
					c57-24.1,132.8-34.3,213.8-25c81,9.3,151.9,36.3,201.1,72.5c24.6,18.1,43.7,38.5,56,60.1c1.5,2.7,3,5.4,4.3,8.2
					c0.7,1.4,1.3,2.7,1.9,4.1h-0.2V212z"/>
				<path class="st50" d="M600.8,211.7v16.7v4h0.9c-0.5,1.3-1,2.7-1.5,4c-1.1,2.6-2.3,5.3-3.6,7.8c-5.3,10.3-12.3,20-21,29
					c-17.3,18.1-40.9,33.4-69.1,45.3c-56.5,23.8-131.6,34-211.8,24.8C134.1,325,13.6,236.3,25.4,145.1C31.4,99.6,69.3,62,125.8,38.2
					c56.5-23.8,131.6-34,211.8-24.8c80.3,9.2,150.5,36,199.3,71.9c24.4,17.9,43.3,38.2,55.5,59.6c3,5.4,5.6,10.8,7.8,16.3
					c0.5,1.4,1.1,2.7,1.5,4.1h-0.8V211.7z"/>
				<path class="st51" d="M600.8,211.4v8.4v4.1h0.8c-0.4,1.4-0.8,2.7-1.2,4.1c-1.7,5.4-3.9,10.6-6.5,15.7
					c-5.2,10.2-12.2,19.8-20.8,28.8c-17.1,17.9-40.5,33.1-68.5,44.9c-56,23.6-130.3,33.7-209.9,24.6
					C135.8,323.7,16.4,235.7,28.1,145.4c5.9-45.1,43.4-82.3,99.4-105.9c56-23.6,130.3-33.7,209.9-24.6
					c79.5,9.1,149.1,35.6,197.4,71.2c24.1,17.8,42.9,37.8,55,59c3,5.3,5.6,10.7,7.7,16.1c1.1,2.7,2,5.5,2.9,8.2
					c0.4,1.4,0.8,2.7,1.2,4.1h-0.7V211.4z"/>
				<path class="st52" d="M597.1,192.8c-11.6,89.4-148.8,147.3-306.4,129.3c-157.6-18-275.9-105.2-264.2-194.6
					c5.8-44.7,43-81.6,98.5-105C180.4-0.9,254.1-10.8,332.8-1.8c78.8,9,147.8,35.3,195.6,70.5c23.9,17.6,42.5,37.5,54.4,58.5
					c6,10.5,10.2,21.3,12.7,32.3c1.2,5.5,2,11,2.2,16.6h-1.3v16.7H597.1z"/>
				<path class="st53" d="M598.7,210.8c-11.5,88.6-147.4,145.9-303.5,128.1C139.2,321,22,234.7,33.5,146.1C45,57.5,180.9,0.1,337,18
					c78,8.9,146.4,35,193.7,69.9c23.7,17.4,42.1,37.1,53.9,57.9C596.5,166.6,601.6,188.6,598.7,210.8z"/>
				<path class="st54" d="M596,210.4c-11.4,87.8-146,144.6-300.6,126.9C140.9,319.6,24.8,234.1,36.2,146.4
					C47.6,58.6,182.2,1.8,336.8,19.5c77.3,8.8,145,34.6,191.9,69.2C575.6,123.3,601.8,166.6,596,210.4z"/>
				<path class="st55" d="M593.4,210.1c-11.3,86.9-144.6,143.2-297.7,125.6C142.5,318.3,27.6,233.6,38.9,146.7
					C50.2,59.8,183.5,3.5,336.6,21c76.6,8.8,143.6,34.3,190,68.5C573.1,123.8,599,166.7,593.4,210.1z"/>
				<path class="st56" d="M590.7,209.8c-11.2,86.1-143.2,141.8-294.8,124.4C144.2,316.9,30.4,233.1,41.6,147
					C52.8,60.9,184.8,5.2,336.4,22.6C488,39.9,601.9,123.8,590.7,209.8z"/>
				<path class="st57" d="M588,209.5c-11.1,85.2-141.8,140.4-291.9,123.2C145.9,315.5,33.2,232.5,44.3,147.3
					C55.4,62.1,186.1,6.9,336.2,24.1C486.3,41.3,599.1,124.3,588,209.5z"/>
				<path class="st58" d="M585.3,209.2c-11,84.4-140.4,139-289,122C147.6,314.2,36,232,47,147.6c11-84.4,140.4-139,289-122
					C484.6,42.6,596.3,124.8,585.3,209.2z"/>
				<path class="st59" d="M582.6,208.9c-10.9,83.5-139,137.6-286.1,120.8C149.3,312.8,38.8,231.4,49.7,147.9
					c10.9-83.5,139-137.6,286.1-120.8C483,44,593.5,125.4,582.6,208.9z"/>
				<path class="st60" d="M579.9,208.6c-10.8,82.7-137.6,136.2-283.3,119.5C151,311.5,41.6,230.9,52.4,148.2
					C63.1,65.5,189.9,12,335.6,28.7C481.3,45.3,590.7,125.9,579.9,208.6z"/>
				<path class="st61" d="M577.2,208.3C566.6,290.1,441,343.1,296.8,326.6C152.7,310.1,44.4,230.4,55,148.5
					C65.7,66.7,191.2,13.7,335.4,30.2C479.6,46.7,587.9,126.4,577.2,208.3z"/>
				<path class="st62" d="M574.5,208C564,289,439.7,341.4,297,325.1C154.3,308.7,47.2,229.8,57.7,148.8
					c10.5-81,134.8-133.4,277.5-117.1C477.9,48.1,585.1,127,574.5,208z"/>
				<path class="st63" d="M571.8,207.7c-10.4,80.2-133.4,132-274.6,115.9C156,307.4,50,229.3,60.4,149.1
					C70.9,69,193.8,17.1,335,33.3C476.2,49.4,582.2,127.5,571.8,207.7z"/>
				<path class="st64" d="M569.1,207.4C558.8,286.7,437.2,338,297.4,322C157.7,306,52.8,228.8,63.1,149.4
					c10.3-79.3,132-130.7,271.7-114.7C474.5,50.8,579.4,128,569.1,207.4z"/>
				<path class="st65" d="M566.4,207.1c-10.2,78.5-130.6,129.3-268.8,113.4c-138.2-15.8-242-92.3-231.8-170.7
					C76,71.3,196.4,20.5,334.6,36.3S576.6,128.6,566.4,207.1z"/>
				<path class="st66" d="M563.7,206.7C553.6,284.4,434.6,334.6,297.8,319C161.1,303.3,58.4,227.7,68.5,150.1
					C78.6,72.4,197.6,22.2,334.4,37.8C471.2,53.5,573.8,129.1,563.7,206.7z"/>
				<path class="st67" d="M561.1,206.4c-10,76.8-127.7,126.5-263,111C162.8,302,61.2,227.2,71.2,150.4c10-76.8,127.7-126.5,263-111
					C469.5,54.9,571,129.7,561.1,206.4z"/>
				<path class="st68" d="M558.4,206.1c-9.9,75.9-126.3,125.1-260.1,109.8C164.5,300.6,64,226.6,73.9,150.7
					C83.8,74.7,200.2,25.6,334,40.9C467.8,56.2,568.2,130.2,558.4,206.1z"/>
				<path class="st69" d="M555.7,205.8c-9.8,75.1-124.9,123.7-257.2,108.6C166.1,299.2,66.8,226.1,76.6,151
					C86.3,75.9,201.5,27.3,333.8,42.4C466.1,57.6,565.4,130.7,555.7,205.8z"/>
				<path class="st70" d="M553,205.5c-9.7,74.3-123.5,122.3-254.3,107.3c-130.8-15-229-87.3-219.4-161.6C88.9,77,202.8,29,333.6,44
					C464.4,58.9,562.6,131.3,553,205.5z"/>
				<path class="st71" d="M550.3,205.2c-9.5,73.4-122.1,120.9-251.5,106.1C169.5,296.5,72.4,225,82,151.6
					C91.5,78.2,204.1,30.7,333.4,45.5C462.7,60.3,559.8,131.8,550.3,205.2z"/>
				<path class="st72" d="M547.6,204.9c-9.4,72.6-120.7,119.5-248.6,104.9C171.2,295.2,75.2,224.5,84.6,151.9
					C94.1,79.3,205.4,32.4,333.2,47C461.1,61.6,557,132.3,547.6,204.9z"/>
				<path class="st73" d="M544.9,204.6c-9.3,71.7-119.3,118.1-245.7,103.7C172.9,293.8,78,223.9,87.3,152.2
					C96.7,80.5,206.7,34.1,333,48.5C459.4,63,554.2,132.9,544.9,204.6z"/>
				<path class="st74" d="M542.2,204.3C533,275.2,424.3,321,299.4,306.7C174.6,292.5,80.8,223.4,90,152.5
					C99.3,81.6,208,35.8,332.8,50.1C457.7,64.4,551.4,133.4,542.2,204.3z"/>
				<path class="st75" d="M539.5,204c-9.1,70-116.5,115.4-239.9,101.2c-123.4-14.1-216-82.3-206.9-152.4
					c9.1-70,116.5-115.4,239.9-101.2C456,65.7,548.6,133.9,539.5,204z"/>
				<path class="st76" d="M536.8,203.7c-9,69.2-115.1,114-237,100c-121.9-14-213.4-81.4-204.4-150.5c9-69.2,115.1-114,237-100
					S545.8,134.5,536.8,203.7z"/>
				<path class="st77" d="M534.1,203.4c-8.9,68.4-113.7,112.6-234.1,98.8C179.6,288.4,89.2,221.8,98.1,153.5
					C107,85.1,211.8,40.9,332.2,54.6C452.6,68.4,543,135,534.1,203.4z"/>
				<path class="st78" d="M531.4,203.1c-8.8,67.5-112.3,111.2-231.2,97.6C181.3,287,92,221.3,100.8,153.8
					C109.6,86.3,213.1,42.6,332,56.2C450.9,69.8,540.2,135.5,531.4,203.1z"/>
				<path class="st79" d="M528.8,202.7c-8.7,66.7-110.9,109.8-228.3,96.4c-117.4-13.4-205.6-78.4-196.9-145
					c8.7-66.7,110.9-109.8,228.3-96.4C449.3,71.1,537.4,136.1,528.8,202.7z"/>
				<path class="st80" d="M526.1,202.4c-8.6,65.8-109.5,108.4-225.4,95.1c-115.9-13.3-203-77.4-194.4-143.2
					C114.7,88.6,215.7,46,331.6,59.2C447.6,72.5,534.6,136.6,526.1,202.4z"/>
				<path class="st81" d="M523.4,202.1c-8.5,65-108.1,107-222.6,93.9c-114.5-13.1-200.4-76.4-191.9-141.4
					c8.5-65,108.1-107,222.6-93.9C445.9,73.9,531.8,137.2,523.4,202.1z"/>
				<path class="st82" d="M520.7,201.8C512.3,265.9,414,307.5,301,294.5C188,281.6,103.2,219.1,111.6,155
					c8.3-64.1,106.7-105.6,219.7-92.7C444.2,75.2,529,137.7,520.7,201.8z"/>
				<path class="st83" d="M518,201.5c-8.2,63.3-105.3,104.2-216.8,91.5c-111.5-12.8-195.2-74.4-187-137.7
					C122.5,92,219.5,51.1,331,63.8C442.5,76.6,526.2,138.2,518,201.5z"/>
				<path class="st84" d="M515.3,201.2c-8.1,62.4-103.9,102.9-213.9,90.3c-110-12.6-192.6-73.4-184.5-135.9
					c8.1-62.4,103.9-102.9,213.9-90.3C440.8,77.9,523.4,138.8,515.3,201.2z"/>
				<path class="st84" d="M512.6,200.9c-8,61.6-102.5,101.5-211,89c-108.5-12.4-190-72.4-182-134c8-61.6,102.5-101.5,211-89
					S520.6,139.3,512.6,200.9z"/>
				<path class="st85" d="M509.9,200.6c-7.9,60.8-101.1,100.1-208.1,87.8c-107-12.2-187.4-71.4-179.5-132.2
					c7.9-60.8,101.1-100.1,208.1-87.8C437.5,80.6,517.8,139.8,509.9,200.6z"/>
				<path class="st86" d="M507.2,200.3c-7.8,59.9-99.7,98.7-205.2,86.6c-105.5-12.1-184.8-70.4-177-130.4
					c7.8-59.9,99.7-98.7,205.2-86.6C435.8,82,515,140.4,507.2,200.3z"/>
				<path class="st87" d="M504.5,200c-7.7,59.1-98.3,97.3-202.3,85.4C198.2,273.4,120,215.9,127.7,156.8
					C135.4,97.8,226,59.5,330,71.5C434.1,83.4,512.2,140.9,504.5,200z"/>
				<path class="st88" d="M501.8,199.7c-7.6,58.2-96.9,95.9-199.4,84.2c-102.6-11.7-179.6-68.5-172-126.7
					C138,98.9,227.3,61.2,329.8,73C432.4,84.7,509.4,141.4,501.8,199.7z"/>
				<path class="st88" d="M499.2,199.4c-7.5,57.4-95.5,94.5-196.5,82.9c-101.1-11.6-177-67.5-169.5-124.8
					c7.5-57.4,95.5-94.5,196.5-82.9C430.7,86.1,506.6,142,499.2,199.4z"/>
				<path class="st89" d="M496.5,199c-7.4,56.5-94.1,93.1-193.6,81.7c-99.6-11.4-174.4-66.5-167-123c7.4-56.5,94.1-93.1,193.7-81.7
					C429,87.4,503.8,142.5,496.5,199z"/>
				<path class="st90" d="M493.8,198.7c-7.2,55.7-92.7,91.7-190.8,80.5c-98.1-11.2-171.8-65.5-164.5-121.2
					c7.2-55.7,92.7-91.7,190.8-80.5C427.4,88.8,501,143,493.8,198.7z"/>
				<path class="st91" d="M491.1,198.4c-7.1,54.8-91.2,90.3-187.9,79.3c-96.6-11.1-169.2-64.5-162-119.3
					c7.1-54.8,91.2-90.3,187.9-79.3C425.7,90.2,498.2,143.6,491.1,198.4z"/>
				<path class="st91" d="M488.4,198.1c-7,54-89.8,89-185,78.1c-95.1-10.9-166.6-63.5-159.5-117.5c7-54,89.8-89,185-78.1
					C424,91.5,495.4,144.1,488.4,198.1z"/>
				<path class="st92" d="M485.7,197.8c-6.9,53.2-88.4,87.6-182.1,76.8c-93.7-10.7-164-62.5-157-115.7
					c6.9-53.2,88.4-87.6,182.1-76.8C422.3,92.9,492.6,144.7,485.7,197.8z"/>
				<path class="st93" d="M483,197.5c-6.8,52.3-87,86.2-179.2,75.6c-92.2-10.5-161.4-61.5-154.6-113.8c6.8-52.3,87-86.2,179.2-75.6
					C420.6,94.2,489.8,145.2,483,197.5z"/>
				<path class="st93" d="M480.3,197.2c-6.7,51.5-85.6,84.8-176.3,74.4c-90.7-10.4-158.8-60.5-152.1-112
					c6.7-51.5,85.6-84.8,176.3-74.4C418.9,95.6,487,145.7,480.3,197.2z"/>
				<path class="st94" d="M477.6,196.9c-6.6,50.6-84.2,83.4-173.4,73.2C215,259.9,148,210.6,154.6,159.9
					c6.6-50.6,84.2-83.4,173.4-73.2C417.2,96.9,484.2,146.3,477.6,196.9z"/>
				<path class="st95" d="M474.9,196.6c-6.5,49.8-82.8,82-170.5,72c-87.7-10-153.6-58.5-147.1-108.3c6.5-49.8,82.8-82,170.5-72
					C415.6,98.3,481.4,146.8,474.9,196.6z"/>
				<path class="st95" d="M472.2,196.3c-6.4,48.9-81.4,80.6-167.6,70.7c-86.2-9.9-151-57.5-144.6-106.5
					c6.4-48.9,81.4-80.6,167.6-70.7C413.9,99.7,478.6,147.3,472.2,196.3z"/>
				<path class="st96" d="M469.5,196c-6.3,48.1-80,79.2-164.7,69.5c-84.7-9.7-148.3-56.6-142.1-104.6c6.3-48.1,80-79.2,164.7-69.5
					C412.2,101,475.8,147.9,469.5,196z"/>
				<path class="st96" d="M466.9,195.7c-6.1,47.3-78.6,77.8-161.9,68.3c-83.2-9.5-145.7-55.6-139.6-102.8
					c6.1-47.3,78.6-77.8,161.9-68.3C410.5,102.4,473,148.4,466.9,195.7z"/>
				<path class="st97" d="M464.2,195.3c-6,46.4-77.2,76.4-159,67.1c-81.8-9.4-143.1-54.6-137.1-101c6-46.4,77.2-76.4,159-67.1
					C408.8,103.7,470.2,148.9,464.2,195.3z"/>
				<path class="st97" d="M461.5,195c-5.9,45.6-75.8,75.1-156.1,65.9c-80.3-9.2-140.5-53.6-134.6-99.1
					c5.9-45.6,75.8-75.1,156.1-65.9C407.1,105.1,467.4,149.5,461.5,195z"/>
				<path class="st98" d="M458.8,194.7c-5.8,44.7-74.4,73.7-153.2,64.6c-78.8-9-137.9-52.6-132.1-97.3
					c5.8-44.7,74.4-73.7,153.2-64.6C405.4,106.4,464.6,150,458.8,194.7z"/>
				<path class="st98" d="M456.1,194.4c-5.7,43.9-73,72.3-150.3,63.4c-77.3-8.8-135.3-51.6-129.6-95.5c5.7-43.9,73-72.3,150.3-63.4
					C403.8,107.8,461.8,150.5,456.1,194.4z"/>
				<path class="st99" d="M453.4,194.1c-5.6,43-71.6,70.9-147.4,62.2c-75.8-8.7-132.7-50.6-127.1-93.6c5.6-43,71.6-70.9,147.4-62.2
					C402.1,109.2,459,151.1,453.4,194.1z"/>
				<path class="st99" d="M450.7,193.8c-5.5,42.2-70.2,69.5-144.5,61c-74.3-8.5-130.1-49.6-124.6-91.8c5.5-42.2,70.2-69.5,144.5-61
					C400.4,110.5,456.2,151.6,450.7,193.8z"/>
				<path class="st100" d="M448,193.5c-5.4,41.3-68.8,68.1-141.6,59.8c-72.8-8.3-127.5-48.6-122.1-90c5.4-41.3,68.8-68.1,141.6-59.8
					C398.7,111.9,453.4,152.2,448,193.5z"/>
				<path class="st100" d="M445.3,193.2c-5.3,40.5-67.4,66.7-138.7,58.6c-71.4-8.2-124.9-47.6-119.7-88.1
					c5.3-40.5,67.4-66.7,138.7-58.6C397,113.2,450.6,152.7,445.3,193.2z"/>
				<path class="st101" d="M442.6,192.9c-5.2,39.7-66,65.3-135.8,57.3c-69.9-8-122.3-46.6-117.2-86.3c5.2-39.7,66-65.3,135.8-57.3
					C395.3,114.6,447.8,153.2,442.6,192.9z"/>
				<path class="st101" d="M439.9,192.6c-5,38.8-64.6,63.9-133,56.1c-68.4-7.8-119.7-45.6-114.7-84.5c5.1-38.8,64.6-63.9,133-56.1
					C393.6,115.9,445,153.8,439.9,192.6z"/>
				<path class="st102" d="M437.2,192.3c-4.9,38-63.2,62.5-130.1,54.9c-66.9-7.7-117.1-44.6-112.2-82.6c4.9-38,63.2-62.5,130.1-54.9
					C392,117.3,442.2,154.3,437.2,192.3z"/>
				<path class="st102" d="M434.6,192c-4.8,37.1-61.8,61.2-127.2,53.7c-65.4-7.5-114.5-43.7-109.7-80.8
					c4.8-37.1,61.8-61.2,127.2-53.7C390.3,118.7,439.4,154.8,434.6,192z"/>
				<path class="st102" d="M431.9,191.7c-4.7,36.3-60.4,59.8-124.3,52.5c-63.9-7.3-111.9-42.7-107.2-78.9
					c4.7-36.3,60.4-59.8,124.3-52.5C388.6,120,436.6,155.4,431.9,191.7z"/>
				<path class="st103" d="M429.2,191.3c-4.6,35.4-59,58.4-121.4,51.2c-62.4-7.1-109.3-41.7-104.7-77.1c4.6-35.4,59-58.4,121.4-51.2
					C386.9,121.4,433.8,155.9,429.2,191.3z"/>
				<path class="st103" d="M426.5,191c-4.5,34.6-57.6,57-118.5,50c-60.9-7-106.7-40.7-102.2-75.3c4.5-34.6,57.6-57,118.5-50
					C385.2,122.7,431,156.4,426.5,191z"/>
				<path class="st104" d="M423.8,190.7c-4.4,33.8-56.2,55.6-115.6,48.8c-59.5-6.8-104.1-39.7-99.7-73.4
					c4.4-33.8,56.2-55.6,115.6-48.8C383.5,124.1,428.2,157,423.8,190.7z"/>
				<path class="st104" d="M421.1,190.4c-4.3,32.9-54.7,54.2-112.7,47.6c-58-6.6-101.5-38.7-97.2-71.6
					c4.3-32.9,54.7-54.2,112.7-47.6C381.8,125.5,425.4,157.5,421.1,190.4z"/>
				<path class="st104" d="M418.4,190.1c-4.2,32.1-53.3,52.8-109.8,46.4c-56.5-6.5-98.9-37.7-94.7-69.8
					c4.2-32.1,53.3-52.8,109.8-46.4C380.2,126.8,422.6,158,418.4,190.1z"/>
				<path class="st105" d="M415.7,189.8c-4.1,31.2-51.9,51.4-106.9,45.1c-55-6.3-96.3-36.7-92.2-67.9c4.1-31.2,51.9-51.4,106.9-45.1
					C378.5,128.2,419.8,158.6,415.7,189.8z"/>
				<path class="st105" d="M413,189.5c-4,30.4-50.5,50-104.1,43.9c-53.5-6.1-93.7-35.7-89.7-66.1c4-30.4,50.5-50,104-43.9
					C376.8,129.5,417,159.1,413,189.5z"/>
				<path class="st105" d="M410.3,189.2c-3.8,29.5-49.1,48.6-101.2,42.7c-52-6-91.1-34.7-87.2-64.3c3.8-29.5,49.1-48.6,101.2-42.7
					C375.1,130.9,414.2,159.7,410.3,189.2z"/>
				<path class="st105" d="M407.6,188.9c-3.7,28.7-47.7,47.3-98.3,41.5c-50.5-5.8-88.5-33.7-84.8-62.4c3.7-28.7,47.7-47.3,98.3-41.5
					C373.4,132.2,411.4,160.2,407.6,188.9z"/>
				<path class="st106" d="M404.9,188.6c-3.6,27.8-46.3,45.9-95.4,40.3c-49.1-5.6-85.9-32.7-82.3-60.6c3.6-27.8,46.3-45.9,95.4-40.3
					C371.7,133.6,408.6,160.7,404.9,188.6z"/>
				<path class="st106" d="M402.3,188.3c-3.5,27-44.9,44.5-92.5,39c-47.6-5.4-83.3-31.7-79.8-58.8c3.5-27,44.9-44.5,92.5-39
					C370.1,135,405.8,161.3,402.3,188.3z"/>
				<path class="st106" d="M399.6,188c-3.4,26.2-43.5,43.1-89.6,37.8c-46.1-5.3-80.7-30.8-77.3-56.9c3.4-26.2,43.5-43.1,89.6-37.8
					C368.4,136.3,403,161.8,399.6,188z"/>
				<path class="st106" d="M396.9,187.6c-3.3,25.3-42.1,41.7-86.7,36.6c-44.6-5.1-78.1-29.8-74.8-55.1c3.3-25.3,42.1-41.7,86.7-36.6
					C366.7,137.7,400.2,162.3,396.9,187.6z"/>
				<path class="st107" d="M394.2,187.3c-3.2,24.5-40.7,40.3-83.8,35.4c-43.1-4.9-75.5-28.8-72.3-53.2c3.2-24.5,40.7-40.3,83.8-35.4
					C365,139,397.4,162.9,394.2,187.3z"/>
				<path class="st107" d="M391.5,187c-3.1,23.6-39.3,38.9-80.9,34.2c-41.6-4.8-72.9-27.8-69.8-51.4c3.1-23.6,39.3-38.9,80.9-34.2
					C363.3,140.4,394.6,163.4,391.5,187z"/>
				<path class="st107" d="M388.8,186.7c-3,22.8-37.9,37.5-78,32.9c-40.1-4.6-70.3-26.8-67.3-49.6c3-22.8,37.9-37.5,78-32.9
					C361.6,141.7,391.8,163.9,388.8,186.7z"/>
				<path class="st107" d="M386.1,186.4c-2.9,21.9-36.5,36.1-75.2,31.7c-38.6-4.4-67.7-25.8-64.8-47.7c2.9-21.9,36.5-36.1,75.1-31.7
					C359.9,143.1,389,164.5,386.1,186.4z"/>
				<path class="st107" d="M383.4,186.1c-2.7,21.1-35.1,34.7-72.3,30.5s-65.1-24.8-62.3-45.9c2.7-21.1,35.1-34.7,72.3-30.5
					C358.3,144.5,386.2,165,383.4,186.1z"/>
				<path class="st108" d="M380.7,185.8c-2.6,20.3-33.7,33.4-69.4,29.3c-35.7-4.1-62.5-23.8-59.8-44.1c2.6-20.3,33.7-33.4,69.4-29.3
					C356.6,145.8,383.4,165.5,380.7,185.8z"/>
				<path class="st108" d="M378,185.5c-2.5,19.4-32.3,32-66.5,28.1c-34.2-3.9-59.9-22.8-57.3-42.2c2.5-19.4,32.3-32,66.5-28.1
					C354.9,147.2,380.6,166.1,378,185.5z"/>
				<path class="st108" d="M375.3,185.2c-2.4,18.6-30.9,30.6-63.6,26.8c-32.7-3.7-57.3-21.8-54.8-40.4c2.4-18.6,30.9-30.6,63.6-26.8
					C353.2,148.5,377.8,166.6,375.3,185.2z"/>
				<path class="st108" d="M372.6,184.9c-2.3,17.7-29.5,29.2-60.7,25.6c-31.2-3.6-54.7-20.8-52.3-38.6c2.3-17.7,29.5-29.2,60.7-25.6
					C351.5,149.9,375,167.2,372.6,184.9z"/>
				<path class="st108" d="M370,184.6c-2.2,16.9-28.1,27.8-57.8,24.4c-29.7-3.4-52.1-19.8-49.9-36.7c2.2-16.9,28.1-27.8,57.8-24.4
					C349.8,151.3,372.1,167.7,370,184.6z"/>
				<path class="st108" d="M367.3,184.3c-2.1,16-26.7,26.4-54.9,23.2c-28.2-3.2-49.4-18.9-47.4-34.9c2.1-16,26.7-26.4,54.9-23.2
					C348.1,152.6,369.4,168.2,367.3,184.3z"/>
				<path class="st108" d="M364.6,184c-2,15.2-25.3,25-52,22c-26.8-3.1-46.8-17.9-44.9-33c2-15.2,25.3-25,52-22
					C346.5,154,366.5,168.8,364.6,184z"/>
				<path class="st108" d="M361.9,183.6c-1.9,14.3-23.9,23.6-49.1,20.7c-25.3-2.9-44.2-16.9-42.4-31.2c1.9-14.3,23.9-23.6,49.1-20.7
					C344.8,155.3,363.7,169.3,361.9,183.6z"/>
				<path class="st108" d="M359.2,183.3c-1.8,13.5-22.5,22.2-46.2,19.5c-23.8-2.7-41.6-15.9-39.9-29.4c1.8-13.5,22.5-22.2,46.2-19.5
					C343.1,156.7,360.9,169.8,359.2,183.3z"/>
				<path class="st109" d="M356.5,183c-1.6,12.7-21.1,20.8-43.4,18.3c-22.3-2.6-39-14.9-37.4-27.5c1.6-12.7,21.1-20.8,43.4-18.3
					C341.4,158,358.1,170.4,356.5,183z"/>
				<path class="st109" d="M353.8,182.7c-1.5,11.8-19.7,19.5-40.5,17.1c-20.8-2.4-36.4-13.9-34.9-25.7c1.5-11.8,19.7-19.5,40.5-17.1
					C339.7,159.4,355.3,170.9,353.8,182.7z"/>
				<path class="st109" d="M351.1,182.4c-1.4,11-18.2,18.1-37.6,15.9c-19.3-2.2-33.8-12.9-32.4-23.9c1.4-11,18.2-18.1,37.6-15.9
					C338,160.8,352.5,171.4,351.1,182.4z"/>
				<path class="st109" d="M348.4,182.1c-1.3,10.1-16.8,16.7-34.7,14.6c-17.8-2-31.2-11.9-29.9-22c1.3-10.1,16.8-16.7,34.7-14.6
					C336.3,162.1,349.7,172,348.4,182.1z"/>
				<path class="st109" d="M345.7,181.8c-1.2,9.3-15.4,15.3-31.8,13.4c-16.4-1.9-28.6-10.9-27.4-20.2c1.2-9.3,15.4-15.3,31.8-13.4
					C334.7,163.5,346.9,172.5,345.7,181.8z"/>
				<path class="st109" d="M343,181.5c-1.1,8.4-14,13.9-28.9,12.2c-14.9-1.7-26-9.9-24.9-18.4c1.1-8.4,14-13.9,28.9-12.2
					C333,164.8,344.1,173,343,181.5z"/>
				<path class="st109" d="M340.3,181.2c-1,7.6-12.6,12.5-26,11c-13.4-1.5-23.4-8.9-22.4-16.5c1-7.6,12.6-12.5,26-11
					C331.3,166.2,341.3,173.6,340.3,181.2z"/>
				<path class="st109" d="M337.7,180.9c-0.9,6.8-11.2,11.1-23.1,9.8c-11.9-1.4-20.8-7.9-19.9-14.7c0.9-6.8,11.2-11.1,23.1-9.8
					C329.6,167.5,338.5,174.1,337.7,180.9z"/>
				<path class="st109" d="M335,180.6c-0.8,5.9-9.8,9.7-20.2,8.5c-10.4-1.2-18.2-6.9-17.5-12.9c0.8-5.9,9.8-9.7,20.2-8.5
					C327.9,168.9,335.7,174.7,335,180.6z"/>
				<path class="st109" d="M332.3,180.3c-0.7,5.1-8.4,8.3-17.3,7.3c-8.9-1-15.6-6-15-11c0.7-5.1,8.4-8.3,17.3-7.3
					C326.2,170.3,332.9,175.2,332.3,180.3z"/>
				<path class="st109" d="M329.6,179.9c-0.5,4.2-7,7-14.5,6.1c-7.4-0.9-13-5-12.5-9.2c0.5-4.2,7-6.9,14.5-6.1
					C324.5,171.6,330.1,175.7,329.6,179.9z"/>
				<path class="st109" d="M326.9,179.6c-0.4,3.4-5.6,5.6-11.6,4.9c-5.9-0.7-10.4-4-10-7.3c0.4-3.4,5.6-5.6,11.6-4.9
					C322.9,173,327.3,176.3,326.9,179.6z"/>
				<path class="st109" d="M324.2,179.3c-0.3,2.5-4.2,4.2-8.7,3.7c-4.5-0.5-7.8-3-7.5-5.5c0.3-2.5,4.2-4.2,8.7-3.7
					C321.2,174.3,324.5,176.8,324.2,179.3z"/>
				<path class="st109" d="M321.5,179c-0.2,1.7-2.8,2.8-5.8,2.4c-3-0.3-5.2-2-5-3.7c0.2-1.7,2.8-2.8,5.8-2.4
					C319.5,175.7,321.7,177.3,321.5,179z"/>
				<path class="st109" d="M318.8,178.7c-0.1,0.8-1.4,1.4-2.9,1.2c-1.5-0.2-2.6-1-2.5-1.8c0.1-0.8,1.4-1.4,2.9-1.2
					C317.8,177,318.9,177.9,318.8,178.7z"/>
			</g>
		</g>
	</g>
	<rect x="-21.1" y="-11.1" class="st0" width="641" height="416"/>
</g>
<g id="Lines">
	<polygon id="Gate_base_2_" class="st110" points="575,342.9 546.7,350.8 546.7,21.9 575,29.8 	"/>
	<rect id="Gate_rect_bigger_1_" x="472.2" y="21.9" class="st111" width="74.2" height="329"/>
	<rect id="Gate_rect_smaller_2_" x="520.9" y="102.4" class="st111" width="24.9" height="169.8"/>
	<path id="Arc" class="st111" d="M472,250.5c-35.2-35.2-35.2-92.2,0-127.3"/>
	<ellipse id="Dot_2" class="st112" cx="301.5" cy="187.4" rx="2.1" ry="1.9"/>
	<ellipse id="Dot_1_" class="st112" cx="498.2" cy="187.4" rx="2.1" ry="1.9"/>
	<rect id="Middle_line" x="301.4" y="21.9" class="st111" width="244.8" height="329.4"/>
	<circle id="Circle" class="st111" cx="301.5" cy="186.9" r="43.5"/>
	<rect id="Main" x="55.2" y="21.9" class="st113" width="491" height="329"/>
	<ellipse id="Dot" class="st112" cx="103.9" cy="187.4" rx="2.1" ry="1.9"/>
	<path id="Arc_1_" class="st111" d="M129.6,250.5c35.2-35.2,35.2-92.2,0-127.3"/>
	<rect id="Gate_rect_bigger_3_" x="55.2" y="21.9" class="st111" width="74.2" height="329"/>
	<rect id="Gate_rect_smaller_3_" x="55.9" y="102.4" class="st111" width="24.9" height="169.8"/>
	<polygon id="Gate_base_3_" class="st110" points="26.7,342.9 55,350.8 55,21.9 26.7,29.8 	"/>
</g>
</svg>
